<?xml version="1.0" encoding="UTF-8"?>
<svg xmlns="http://www.w3.org/2000/svg" version="1.1" width="100" height="100" viewBox="0 0 100 100"><rect x="0" y="0" width="100" height="100" fill="#ffffff"/><g transform="scale(3.03)"><g transform="translate(0,0)"><path fill-rule="evenodd" d="M8 0L8 1L9 1L9 2L8 2L8 5L9 5L9 4L11 4L11 5L10 5L10 10L9 10L9 11L8 11L8 10L6 10L6 9L7 9L7 8L6 8L6 9L4 9L4 8L0 8L0 9L1 9L1 10L0 10L0 13L2 13L2 14L3 14L3 16L2 16L2 17L1 17L1 19L2 19L2 18L4 18L4 20L3 20L3 22L2 22L2 23L1 23L1 24L0 24L0 25L1 25L1 24L2 24L2 25L8 25L8 26L9 26L9 25L10 25L10 27L9 27L9 29L8 29L8 33L10 33L10 32L12 32L12 33L13 33L13 31L14 31L14 33L15 33L15 32L16 32L16 31L17 31L17 32L18 32L18 33L19 33L19 32L18 32L18 31L19 31L19 30L18 30L18 31L17 31L17 30L16 30L16 29L15 29L15 28L13 28L13 26L14 26L14 23L15 23L15 26L17 26L17 27L16 27L16 28L17 28L17 27L19 27L19 28L20 28L20 29L22 29L22 30L23 30L23 31L24 31L24 32L25 32L25 33L27 33L27 31L28 31L28 33L29 33L29 32L30 32L30 33L31 33L31 32L30 32L30 31L28 31L28 29L29 29L29 26L30 26L30 30L31 30L31 31L32 31L32 32L33 32L33 31L32 31L32 29L31 29L31 28L32 28L32 27L31 27L31 26L32 26L32 25L33 25L33 21L32 21L32 20L29 20L29 21L30 21L30 22L29 22L29 23L31 23L31 21L32 21L32 25L31 25L31 26L30 26L30 25L29 25L29 24L27 24L27 23L28 23L28 19L32 19L32 18L33 18L33 17L32 17L32 16L33 16L33 15L32 15L32 16L31 16L31 14L32 14L32 12L31 12L31 14L30 14L30 13L29 13L29 12L30 12L30 11L29 11L29 10L30 10L30 9L31 9L31 8L28 8L28 9L26 9L26 8L25 8L25 4L24 4L24 7L23 7L23 5L22 5L22 4L23 4L23 3L24 3L24 0L21 0L21 1L20 1L20 0L18 0L18 1L20 1L20 2L22 2L22 4L21 4L21 3L19 3L19 4L17 4L17 5L16 5L16 4L15 4L15 3L14 3L14 2L15 2L15 1L13 1L13 0L12 0L12 1L11 1L11 0L10 0L10 1L9 1L9 0ZM11 2L11 4L12 4L12 3L13 3L13 2ZM13 4L13 5L12 5L12 6L11 6L11 8L12 8L12 9L11 9L11 10L12 10L12 9L14 9L14 6L13 6L13 5L15 5L15 7L16 7L16 8L15 8L15 11L16 11L16 13L17 13L17 12L18 12L18 14L19 14L19 13L20 13L20 14L21 14L21 15L25 15L25 16L24 16L24 18L22 18L22 17L23 17L23 16L22 16L22 17L21 17L21 20L20 20L20 17L19 17L19 19L18 19L18 20L20 20L20 21L21 21L21 22L22 22L22 23L21 23L21 24L20 24L20 22L19 22L19 21L18 21L18 22L17 22L17 23L16 23L16 21L17 21L17 19L16 19L16 20L15 20L15 19L14 19L14 18L15 18L15 17L16 17L16 18L17 18L17 17L18 17L18 16L20 16L20 15L17 15L17 14L15 14L15 13L13 13L13 12L12 12L12 11L11 11L11 12L12 12L12 13L9 13L9 12L7 12L7 11L6 11L6 10L5 10L5 11L4 11L4 9L2 9L2 10L1 10L1 12L2 12L2 13L4 13L4 14L5 14L5 19L6 19L6 20L7 20L7 19L8 19L8 21L12 21L12 22L15 22L15 23L16 23L16 25L17 25L17 24L18 24L18 26L19 26L19 24L20 24L20 28L21 28L21 26L23 26L23 25L24 25L24 24L25 24L25 22L24 22L24 24L22 24L22 23L23 23L23 22L22 22L22 21L21 21L21 20L23 20L23 19L24 19L24 18L25 18L25 20L24 20L24 21L25 21L25 20L26 20L26 21L27 21L27 20L26 20L26 16L27 16L27 15L28 15L28 16L29 16L29 15L30 15L30 14L29 14L29 13L28 13L28 10L29 10L29 9L28 9L28 10L27 10L27 12L25 12L25 11L26 11L26 10L25 10L25 8L22 8L22 5L20 5L20 6L19 6L19 5L18 5L18 6L17 6L17 7L16 7L16 5L15 5L15 4ZM8 6L8 7L9 7L9 6ZM12 6L12 8L13 8L13 6ZM18 6L18 7L17 7L17 8L16 8L16 9L19 9L19 10L18 10L18 11L19 11L19 12L21 12L21 11L22 11L22 8L21 8L21 6L20 6L20 7L19 7L19 6ZM8 8L8 9L9 9L9 8ZM20 8L20 10L19 10L19 11L21 11L21 8ZM32 8L32 10L31 10L31 11L33 11L33 8ZM23 9L23 12L22 12L22 13L23 13L23 12L24 12L24 11L25 11L25 10L24 10L24 9ZM13 10L13 11L14 11L14 10ZM16 10L16 11L17 11L17 10ZM3 11L3 12L4 12L4 11ZM5 11L5 12L6 12L6 13L5 13L5 14L6 14L6 15L7 15L7 16L6 16L6 17L7 17L7 18L6 18L6 19L7 19L7 18L8 18L8 19L9 19L9 20L11 20L11 19L9 19L9 18L8 18L8 17L10 17L10 16L8 16L8 15L9 15L9 13L8 13L8 14L6 14L6 13L7 13L7 12L6 12L6 11ZM12 13L12 14L13 14L13 15L11 15L11 14L10 14L10 15L11 15L11 18L12 18L12 19L13 19L13 18L14 18L14 16L13 16L13 15L14 15L14 14L13 14L13 13ZM24 13L24 14L25 14L25 15L27 15L27 14L26 14L26 13ZM0 14L0 16L1 16L1 14ZM28 14L28 15L29 15L29 14ZM3 16L3 17L4 17L4 16ZM12 16L12 18L13 18L13 16ZM16 16L16 17L17 17L17 16ZM27 17L27 19L28 19L28 17ZM30 17L30 18L31 18L31 17ZM0 20L0 22L1 22L1 20ZM4 20L4 21L5 21L5 22L3 22L3 23L2 23L2 24L3 24L3 23L4 23L4 24L5 24L5 23L6 23L6 24L9 24L9 23L6 23L6 22L7 22L7 21L5 21L5 20ZM12 20L12 21L13 21L13 20ZM10 22L10 23L11 23L11 24L10 24L10 25L11 25L11 27L12 27L12 23L11 23L11 22ZM25 25L25 28L28 28L28 25ZM26 26L26 27L27 27L27 26ZM22 27L22 29L23 29L23 28L24 28L24 27ZM10 28L10 29L9 29L9 30L10 30L10 29L11 29L11 28ZM14 29L14 31L15 31L15 29ZM24 29L24 30L25 30L25 29ZM26 29L26 30L27 30L27 29ZM11 30L11 31L13 31L13 30ZM9 31L9 32L10 32L10 31ZM25 31L25 32L26 32L26 31ZM21 32L21 33L23 33L23 32ZM0 0L0 7L7 7L7 0ZM1 1L1 6L6 6L6 1ZM2 2L2 5L5 5L5 2ZM26 0L26 7L33 7L33 0ZM27 1L27 6L32 6L32 1ZM28 2L28 5L31 5L31 2ZM0 26L0 33L7 33L7 26ZM1 27L1 32L6 32L6 27ZM2 28L2 31L5 31L5 28Z" fill="#000000"/></g></g></svg>
