<?xml version="1.0" encoding="UTF-8"?>
<svg xmlns="http://www.w3.org/2000/svg" version="1.1" width="100" height="100" viewBox="0 0 100 100"><rect x="0" y="0" width="100" height="100" fill="#ffffff"/><g transform="scale(3.03)"><g transform="translate(0,0)"><path fill-rule="evenodd" d="M9 0L9 1L8 1L8 3L9 3L9 4L8 4L8 8L6 8L6 9L5 9L5 10L4 10L4 8L3 8L3 10L2 10L2 11L1 11L1 10L0 10L0 11L1 11L1 13L0 13L0 15L1 15L1 13L3 13L3 14L2 14L2 16L3 16L3 18L2 18L2 17L1 17L1 16L0 16L0 17L1 17L1 18L0 18L0 20L1 20L1 22L0 22L0 23L1 23L1 24L0 24L0 25L1 25L1 24L4 24L4 25L5 25L5 23L3 23L3 22L4 22L4 21L2 21L2 20L6 20L6 21L5 21L5 22L6 22L6 23L7 23L7 24L6 24L6 25L8 25L8 27L9 27L9 29L8 29L8 30L9 30L9 31L8 31L8 33L9 33L9 32L10 32L10 33L14 33L14 32L16 32L16 33L17 33L17 32L18 32L18 31L19 31L19 29L20 29L20 32L19 32L19 33L20 33L20 32L21 32L21 33L25 33L25 32L26 32L26 30L27 30L27 29L28 29L28 31L27 31L27 32L28 32L28 33L30 33L30 31L29 31L29 29L30 29L30 30L31 30L31 31L33 31L33 29L30 29L30 25L29 25L29 23L28 23L28 20L29 20L29 19L32 19L32 20L33 20L33 18L32 18L32 17L31 17L31 18L30 18L30 17L29 17L29 16L27 16L27 15L25 15L25 14L28 14L28 15L30 15L30 13L28 13L28 11L29 11L29 12L30 12L30 11L31 11L31 10L32 10L32 12L31 12L31 16L33 16L33 15L32 15L32 14L33 14L33 9L32 9L32 8L30 8L30 10L28 10L28 9L29 9L29 8L26 8L26 10L25 10L25 5L24 5L24 4L25 4L25 2L24 2L24 0L23 0L23 2L22 2L22 4L21 4L21 3L20 3L20 2L16 2L16 0L14 0L14 3L15 3L15 4L12 4L12 3L13 3L13 2L12 2L12 0L11 0L11 2L12 2L12 3L11 3L11 5L10 5L10 3L9 3L9 2L10 2L10 0ZM18 0L18 1L21 1L21 0ZM23 2L23 3L24 3L24 2ZM19 3L19 4L17 4L17 5L18 5L18 6L17 6L17 7L18 7L18 6L19 6L19 7L20 7L20 8L17 8L17 9L18 9L18 10L16 10L16 8L15 8L15 7L16 7L16 6L15 6L15 7L14 7L14 5L11 5L11 8L10 8L10 5L9 5L9 8L8 8L8 9L6 9L6 10L7 10L7 11L6 11L6 12L5 12L5 13L4 13L4 10L3 10L3 11L2 11L2 12L3 12L3 13L4 13L4 14L3 14L3 16L4 16L4 19L6 19L6 20L8 20L8 21L9 21L9 22L10 22L10 23L9 23L9 24L8 24L8 25L9 25L9 27L11 27L11 28L12 28L12 30L11 30L11 29L9 29L9 30L11 30L11 31L10 31L10 32L14 32L14 31L18 31L18 29L19 29L19 28L21 28L21 26L19 26L19 24L21 24L21 23L19 23L19 24L18 24L18 22L20 22L20 21L21 21L21 22L22 22L22 24L23 24L23 25L24 25L24 24L25 24L25 23L26 23L26 21L27 21L27 20L28 20L28 19L29 19L29 17L28 17L28 19L27 19L27 17L24 17L24 16L25 16L25 15L23 15L23 14L24 14L24 13L26 13L26 12L25 12L25 10L24 10L24 9L23 9L23 7L24 7L24 5L23 5L23 4L22 4L22 6L21 6L21 7L20 7L20 6L19 6L19 5L20 5L20 3ZM12 6L12 7L13 7L13 6ZM22 6L22 7L21 7L21 12L20 12L20 10L18 10L18 12L16 12L16 13L18 13L18 12L20 12L20 13L19 13L19 14L20 14L20 15L19 15L19 16L20 16L20 17L21 17L21 21L22 21L22 22L23 22L23 20L24 20L24 21L25 21L25 20L26 20L26 19L25 19L25 18L24 18L24 17L23 17L23 18L22 18L22 16L23 16L23 15L21 15L21 14L23 14L23 13L22 13L22 12L24 12L24 11L22 11L22 7L23 7L23 6ZM0 8L0 9L2 9L2 8ZM11 8L11 9L12 9L12 10L13 10L13 11L12 11L12 14L11 14L11 15L8 15L8 14L10 14L10 13L11 13L11 11L9 11L9 10L10 10L10 9L9 9L9 10L8 10L8 11L9 11L9 12L6 12L6 13L5 13L5 14L4 14L4 16L5 16L5 14L6 14L6 15L8 15L8 16L6 16L6 17L8 17L8 16L10 16L10 17L9 17L9 18L8 18L8 19L9 19L9 20L10 20L10 21L12 21L12 23L11 23L11 24L12 24L12 25L14 25L14 26L16 26L16 27L15 27L15 28L16 28L16 27L17 27L17 29L18 29L18 26L16 26L16 25L18 25L18 24L16 24L16 25L14 25L14 23L15 23L15 20L16 20L16 22L18 22L18 21L17 21L17 20L19 20L19 18L18 18L18 15L17 15L17 14L16 14L16 15L15 15L15 17L16 17L16 18L17 18L17 20L16 20L16 19L15 19L15 20L13 20L13 19L11 19L11 18L14 18L14 17L11 17L11 15L12 15L12 14L13 14L13 16L14 16L14 14L13 14L13 13L15 13L15 11L14 11L14 10L13 10L13 9L14 9L14 8L13 8L13 9L12 9L12 8ZM26 10L26 11L28 11L28 10ZM9 12L9 13L10 13L10 12ZM6 13L6 14L8 14L8 13ZM16 16L16 17L17 17L17 16ZM10 17L10 18L11 18L11 17ZM6 18L6 19L7 19L7 18ZM23 18L23 19L24 19L24 18ZM1 19L1 20L2 20L2 19ZM10 19L10 20L11 20L11 19ZM12 20L12 21L13 21L13 22L14 22L14 21L13 21L13 20ZM6 21L6 22L7 22L7 23L8 23L8 22L7 22L7 21ZM29 21L29 22L30 22L30 21ZM31 21L31 23L33 23L33 21ZM24 22L24 23L23 23L23 24L24 24L24 23L25 23L25 22ZM12 23L12 24L13 24L13 23ZM25 25L25 28L28 28L28 25ZM31 25L31 28L32 28L32 26L33 26L33 25ZM11 26L11 27L13 27L13 28L14 28L14 27L13 27L13 26ZM23 26L23 27L22 27L22 30L23 30L23 32L24 32L24 30L23 30L23 29L24 29L24 28L23 28L23 27L24 27L24 26ZM26 26L26 27L27 27L27 26ZM13 29L13 30L12 30L12 31L13 31L13 30L15 30L15 29ZM28 31L28 32L29 32L29 31ZM31 32L31 33L32 33L32 32ZM0 0L0 7L7 7L7 0ZM1 1L1 6L6 6L6 1ZM2 2L2 5L5 5L5 2ZM26 0L26 7L33 7L33 0ZM27 1L27 6L32 6L32 1ZM28 2L28 5L31 5L31 2ZM0 26L0 33L7 33L7 26ZM1 27L1 32L6 32L6 27ZM2 28L2 31L5 31L5 28Z" fill="#000000"/></g></g></svg>
