<?xml version="1.0" encoding="UTF-8"?>
<svg xmlns="http://www.w3.org/2000/svg" version="1.1" width="100" height="100" viewBox="0 0 100 100"><rect x="0" y="0" width="100" height="100" fill="#ffffff"/><g transform="scale(3.03)"><g transform="translate(0,0)"><path fill-rule="evenodd" d="M8 0L8 1L9 1L9 2L8 2L8 5L9 5L9 4L11 4L11 5L10 5L10 10L6 10L6 9L7 9L7 8L6 8L6 9L4 9L4 8L0 8L0 9L1 9L1 10L2 10L2 11L3 11L3 12L4 12L4 13L5 13L5 15L4 15L4 14L2 14L2 15L1 15L1 14L0 14L0 17L1 17L1 16L2 16L2 15L3 15L3 16L4 16L4 17L3 17L3 18L1 18L1 19L0 19L0 22L1 22L1 19L2 19L2 20L3 20L3 18L5 18L5 19L4 19L4 22L6 22L6 23L7 23L7 22L8 22L8 21L9 21L9 23L8 23L8 24L9 24L9 25L8 25L8 26L9 26L9 29L8 29L8 33L9 33L9 32L10 32L10 33L11 33L11 32L13 32L13 31L14 31L14 30L15 30L15 31L17 31L17 32L14 32L14 33L19 33L19 32L18 32L18 31L17 31L17 30L18 30L18 29L19 29L19 28L20 28L20 29L22 29L22 30L23 30L23 31L24 31L24 32L25 32L25 31L26 31L26 33L27 33L27 31L28 31L28 33L29 33L29 32L30 32L30 33L31 33L31 32L30 32L30 31L28 31L28 29L29 29L29 26L30 26L30 30L31 30L31 31L32 31L32 32L33 32L33 31L32 31L32 29L33 29L33 27L31 27L31 26L32 26L32 25L33 25L33 21L32 21L32 20L29 20L29 19L32 19L32 18L33 18L33 17L32 17L32 16L33 16L33 15L32 15L32 16L31 16L31 14L32 14L32 12L31 12L31 14L30 14L30 13L29 13L29 12L30 12L30 11L29 11L29 10L30 10L30 9L31 9L31 8L28 8L28 9L26 9L26 8L25 8L25 4L24 4L24 7L23 7L23 5L22 5L22 4L23 4L23 3L24 3L24 0L21 0L21 1L20 1L20 0L18 0L18 1L20 1L20 2L22 2L22 4L21 4L21 3L19 3L19 4L17 4L17 3L15 3L15 0L12 0L12 1L11 1L11 0L10 0L10 1L9 1L9 0ZM16 0L16 1L17 1L17 0ZM13 1L13 2L11 2L11 4L12 4L12 3L13 3L13 2L14 2L14 1ZM13 4L13 5L12 5L12 6L11 6L11 8L12 8L12 6L13 6L13 11L11 11L11 13L8 13L8 14L7 14L7 13L6 13L6 12L8 12L8 11L6 11L6 10L5 10L5 11L6 11L6 12L5 12L5 13L6 13L6 14L7 14L7 15L5 15L5 16L8 16L8 17L9 17L9 15L8 15L8 14L11 14L11 13L12 13L12 12L13 12L13 11L15 11L15 12L14 12L14 13L13 13L13 14L12 14L12 16L11 16L11 15L10 15L10 16L11 16L11 17L10 17L10 19L9 19L9 18L8 18L8 19L5 19L5 21L6 21L6 22L7 22L7 21L8 21L8 19L9 19L9 20L10 20L10 21L11 21L11 19L13 19L13 21L12 21L12 24L11 24L11 23L10 23L10 24L11 24L11 26L10 26L10 28L11 28L11 27L13 27L13 28L14 28L14 29L15 29L15 28L14 28L14 27L13 27L13 26L15 26L15 27L17 27L17 28L16 28L16 30L17 30L17 29L18 29L18 27L19 27L19 26L18 26L18 27L17 27L17 26L15 26L15 25L12 25L12 24L13 24L13 22L15 22L15 23L14 23L14 24L15 24L15 23L17 23L17 24L16 24L16 25L17 25L17 24L18 24L18 25L19 25L19 24L20 24L20 28L21 28L21 26L23 26L23 25L24 25L24 24L25 24L25 23L26 23L26 24L29 24L29 25L30 25L30 26L31 26L31 25L32 25L32 21L31 21L31 23L29 23L29 22L30 22L30 21L29 21L29 20L28 20L28 19L29 19L29 18L28 18L28 17L27 17L27 18L26 18L26 15L28 15L28 16L29 16L29 15L30 15L30 14L29 14L29 13L28 13L28 11L27 11L27 12L26 12L26 11L24 11L24 12L23 12L23 9L24 9L24 10L25 10L25 8L22 8L22 5L20 5L20 6L19 6L19 5L18 5L18 6L17 6L17 7L16 7L16 5L15 5L15 4ZM13 5L13 6L14 6L14 9L15 9L15 8L16 8L16 9L18 9L18 10L17 10L17 11L18 11L18 12L17 12L17 13L18 13L18 12L21 12L21 11L22 11L22 8L21 8L21 6L20 6L20 7L19 7L19 6L18 6L18 7L17 7L17 8L16 8L16 7L15 7L15 6L14 6L14 5ZM8 6L8 7L9 7L9 6ZM8 8L8 9L9 9L9 8ZM20 8L20 10L18 10L18 11L21 11L21 8ZM32 8L32 10L31 10L31 11L33 11L33 8ZM11 9L11 10L12 10L12 9ZM28 9L28 10L29 10L29 9ZM0 11L0 12L1 12L1 11ZM22 12L22 13L23 13L23 12ZM14 13L14 14L16 14L16 15L18 15L18 18L17 18L17 17L15 17L15 16L13 16L13 17L14 17L14 18L13 18L13 19L14 19L14 20L15 20L15 19L16 19L16 20L17 20L17 21L16 21L16 22L17 22L17 23L18 23L18 24L19 24L19 23L18 23L18 22L20 22L20 24L21 24L21 23L22 23L22 24L24 24L24 22L27 22L27 23L28 23L28 20L27 20L27 19L28 19L28 18L27 18L27 19L26 19L26 18L24 18L24 16L25 16L25 15L26 15L26 13L24 13L24 14L25 14L25 15L21 15L21 14L20 14L20 13L19 13L19 14L16 14L16 13ZM28 14L28 15L29 15L29 14ZM19 15L19 16L20 16L20 15ZM22 16L22 17L21 17L21 20L20 20L20 17L19 17L19 20L20 20L20 21L21 21L21 22L22 22L22 23L23 23L23 22L22 22L22 21L21 21L21 20L23 20L23 19L24 19L24 18L22 18L22 17L23 17L23 16ZM6 17L6 18L7 18L7 17ZM30 17L30 18L31 18L31 17ZM14 18L14 19L15 19L15 18ZM6 20L6 21L7 21L7 20ZM24 20L24 21L25 21L25 20ZM26 20L26 21L27 21L27 20ZM2 21L2 22L3 22L3 21ZM17 21L17 22L18 22L18 21ZM1 23L1 24L0 24L0 25L1 25L1 24L2 24L2 25L3 25L3 23ZM4 23L4 25L5 25L5 23ZM6 24L6 25L7 25L7 24ZM25 25L25 28L28 28L28 25ZM26 26L26 27L27 27L27 26ZM22 27L22 29L23 29L23 28L24 28L24 27ZM9 29L9 30L10 30L10 31L13 31L13 30L11 30L11 29ZM26 29L26 30L27 30L27 29ZM21 32L21 33L23 33L23 32ZM0 0L0 7L7 7L7 0ZM1 1L1 6L6 6L6 1ZM2 2L2 5L5 5L5 2ZM26 0L26 7L33 7L33 0ZM27 1L27 6L32 6L32 1ZM28 2L28 5L31 5L31 2ZM0 26L0 33L7 33L7 26ZM1 27L1 32L6 32L6 27ZM2 28L2 31L5 31L5 28Z" fill="#000000"/></g></g></svg>
