<?xml version="1.0" encoding="UTF-8"?>
<svg xmlns="http://www.w3.org/2000/svg" version="1.1" width="100" height="100" viewBox="0 0 100 100"><rect x="0" y="0" width="100" height="100" fill="#ffffff"/><g transform="scale(2.703)"><g transform="translate(0,0)"><path fill-rule="evenodd" d="M10 0L10 1L9 1L9 2L8 2L8 3L9 3L9 5L10 5L10 7L11 7L11 8L12 8L12 9L11 9L11 11L10 11L10 9L9 9L9 6L8 6L8 8L4 8L4 9L3 9L3 8L0 8L0 9L1 9L1 10L0 10L0 11L1 11L1 10L2 10L2 9L3 9L3 11L4 11L4 12L6 12L6 13L8 13L8 14L6 14L6 15L5 15L5 14L4 14L4 13L3 13L3 12L2 12L2 15L0 15L0 16L2 16L2 17L1 17L1 19L0 19L0 23L2 23L2 24L0 24L0 25L1 25L1 26L0 26L0 27L1 27L1 28L0 28L0 29L1 29L1 28L3 28L3 29L7 29L7 28L8 28L8 33L10 33L10 32L9 32L9 31L11 31L11 32L12 32L12 33L11 33L11 34L10 34L10 36L11 36L11 37L12 37L12 36L14 36L14 37L15 37L15 34L14 34L14 33L13 33L13 32L12 32L12 31L11 31L11 30L12 30L12 28L14 28L14 30L13 30L13 31L14 31L14 30L16 30L16 29L17 29L17 30L18 30L18 28L20 28L20 30L22 30L22 31L21 31L21 32L20 32L20 31L15 31L15 33L16 33L16 35L17 35L17 36L16 36L16 37L22 37L22 36L23 36L23 34L22 34L22 31L23 31L23 29L21 29L21 28L22 28L22 27L23 27L23 26L24 26L24 27L25 27L25 28L24 28L24 29L26 29L26 28L28 28L28 29L27 29L27 31L25 31L25 30L24 30L24 31L25 31L25 34L24 34L24 35L25 35L25 36L24 36L24 37L29 37L29 36L30 36L30 35L29 35L29 34L30 34L30 33L32 33L32 35L31 35L31 36L32 36L32 35L33 35L33 37L34 37L34 35L35 35L35 37L37 37L37 36L36 36L36 35L37 35L37 34L36 34L36 32L37 32L37 29L36 29L36 30L35 30L35 31L36 31L36 32L35 32L35 33L34 33L34 31L33 31L33 30L34 30L34 29L33 29L33 28L34 28L34 27L33 27L33 26L36 26L36 28L37 28L37 21L36 21L36 20L37 20L37 16L35 16L35 17L36 17L36 18L35 18L35 24L36 24L36 25L34 25L34 23L33 23L33 26L32 26L32 23L31 23L31 22L32 22L32 19L33 19L33 20L34 20L34 19L33 19L33 18L34 18L34 16L33 16L33 18L32 18L32 11L33 11L33 10L34 10L34 9L35 9L35 11L37 11L37 9L35 9L35 8L34 8L34 9L33 9L33 10L32 10L32 9L31 9L31 8L29 8L29 4L28 4L28 3L29 3L29 2L28 2L28 1L29 1L29 0L27 0L27 2L26 2L26 3L27 3L27 4L26 4L26 5L27 5L27 6L26 6L26 7L25 7L25 6L24 6L24 5L25 5L25 4L24 4L24 3L25 3L25 2L24 2L24 1L23 1L23 0L21 0L21 1L20 1L20 0L19 0L19 2L18 2L18 1L17 1L17 2L18 2L18 5L17 5L17 3L16 3L16 2L15 2L15 3L16 3L16 5L14 5L14 3L12 3L12 2L11 2L11 3L12 3L12 5L10 5L10 3L9 3L9 2L10 2L10 1L11 1L11 0ZM14 0L14 1L13 1L13 2L14 2L14 1L15 1L15 0ZM25 0L25 1L26 1L26 0ZM21 1L21 4L20 4L20 2L19 2L19 4L20 4L20 6L19 6L19 7L20 7L20 6L21 6L21 7L22 7L22 6L21 6L21 5L23 5L23 4L22 4L22 3L24 3L24 2L23 2L23 1ZM13 5L13 7L12 7L12 6L11 6L11 7L12 7L12 8L13 8L13 9L14 9L14 10L13 10L13 11L14 11L14 10L15 10L15 9L16 9L16 8L17 8L17 7L18 7L18 6L17 6L17 7L16 7L16 6L15 6L15 7L14 7L14 5ZM23 6L23 8L22 8L22 9L21 9L21 8L19 8L19 9L18 9L18 10L19 10L19 11L18 11L18 12L19 12L19 15L18 15L18 16L19 16L19 15L20 15L20 14L21 14L21 15L22 15L22 14L23 14L23 15L24 15L24 12L25 12L25 10L24 10L24 8L25 8L25 7L24 7L24 6ZM27 6L27 7L26 7L26 8L27 8L27 9L26 9L26 10L27 10L27 11L26 11L26 12L27 12L27 13L25 13L25 15L26 15L26 16L27 16L27 15L28 15L28 16L29 16L29 18L30 18L30 16L29 16L29 15L30 15L30 12L29 12L29 10L30 10L30 9L29 9L29 10L28 10L28 8L27 8L27 7L28 7L28 6ZM15 7L15 8L16 8L16 7ZM5 9L5 10L7 10L7 11L6 11L6 12L8 12L8 13L9 13L9 14L10 14L10 15L12 15L12 16L11 16L11 17L12 17L12 16L13 16L13 17L14 17L14 18L13 18L13 19L14 19L14 18L15 18L15 17L16 17L16 16L17 16L17 14L18 14L18 13L17 13L17 12L16 12L16 11L15 11L15 12L16 12L16 14L14 14L14 12L12 12L12 11L11 11L11 12L10 12L10 11L9 11L9 10L8 10L8 9ZM20 9L20 11L21 11L21 12L20 12L20 13L21 13L21 14L22 14L22 12L24 12L24 11L21 11L21 9ZM8 11L8 12L9 12L9 13L10 13L10 12L9 12L9 11ZM11 12L11 14L12 14L12 12ZM28 12L28 14L29 14L29 12ZM35 12L35 14L33 14L33 15L37 15L37 13L36 13L36 12ZM0 13L0 14L1 14L1 13ZM13 14L13 15L14 15L14 14ZM2 15L2 16L3 16L3 15ZM4 15L4 16L5 16L5 15ZM6 15L6 16L8 16L8 17L6 17L6 18L4 18L4 17L3 17L3 18L2 18L2 19L1 19L1 20L2 20L2 19L3 19L3 18L4 18L4 19L6 19L6 20L7 20L7 21L5 21L5 20L4 20L4 21L5 21L5 22L8 22L8 19L10 19L10 16L8 16L8 15ZM15 15L15 16L16 16L16 15ZM22 16L22 17L23 17L23 19L22 19L22 21L20 21L20 20L21 20L21 19L20 19L20 18L21 18L21 17L18 17L18 18L19 18L19 19L18 19L18 21L19 21L19 22L17 22L17 20L16 20L16 19L15 19L15 20L16 20L16 22L14 22L14 20L12 20L12 19L11 19L11 20L9 20L9 21L11 21L11 20L12 20L12 22L10 22L10 24L11 24L11 25L10 25L10 27L11 27L11 28L12 28L12 27L11 27L11 25L12 25L12 24L13 24L13 25L14 25L14 26L13 26L13 27L14 27L14 26L15 26L15 25L16 25L16 24L17 24L17 23L20 23L20 24L21 24L21 23L22 23L22 22L23 22L23 25L22 25L22 26L21 26L21 27L22 27L22 26L23 26L23 25L24 25L24 24L25 24L25 23L24 23L24 21L23 21L23 19L24 19L24 20L25 20L25 18L24 18L24 17L23 17L23 16ZM26 17L26 18L27 18L27 19L26 19L26 21L25 21L25 22L26 22L26 26L25 26L25 27L26 27L26 26L27 26L27 27L29 27L29 26L28 26L28 25L30 25L30 24L29 24L29 23L30 23L30 22L29 22L29 23L28 23L28 21L30 21L30 20L28 20L28 17ZM6 18L6 19L7 19L7 18ZM31 18L31 19L32 19L32 18ZM2 21L2 22L3 22L3 23L4 23L4 24L7 24L7 25L6 25L6 26L5 26L5 25L3 25L3 24L2 24L2 26L1 26L1 27L2 27L2 26L4 26L4 27L3 27L3 28L5 28L5 27L6 27L6 28L7 28L7 27L6 27L6 26L8 26L8 28L9 28L9 30L10 30L10 28L9 28L9 25L8 25L8 24L7 24L7 23L4 23L4 22L3 22L3 21ZM33 21L33 22L34 22L34 21ZM13 22L13 23L14 23L14 22ZM11 23L11 24L12 24L12 23ZM15 23L15 24L16 24L16 23ZM18 24L18 25L19 25L19 27L20 27L20 25L19 25L19 24ZM30 26L30 28L31 28L31 26ZM15 27L15 28L16 28L16 27ZM32 27L32 28L33 28L33 27ZM29 29L29 32L32 32L32 29ZM30 30L30 31L31 31L31 30ZM27 31L27 32L26 32L26 34L25 34L25 35L27 35L27 36L28 36L28 31ZM16 32L16 33L17 33L17 32ZM18 32L18 33L19 33L19 35L18 35L18 36L19 36L19 35L20 35L20 36L21 36L21 35L22 35L22 34L21 34L21 35L20 35L20 32ZM23 32L23 33L24 33L24 32ZM8 34L8 37L9 37L9 34ZM13 34L13 35L14 35L14 34ZM11 35L11 36L12 36L12 35ZM0 0L0 7L7 7L7 0ZM1 1L1 6L6 6L6 1ZM2 2L2 5L5 5L5 2ZM30 0L30 7L37 7L37 0ZM31 1L31 6L36 6L36 1ZM32 2L32 5L35 5L35 2ZM0 30L0 37L7 37L7 30ZM1 31L1 36L6 36L6 31ZM2 32L2 35L5 35L5 32Z" fill="#000000"/></g></g></svg>
