<?xml version="1.0" encoding="UTF-8"?>
<svg xmlns="http://www.w3.org/2000/svg" version="1.1" width="100" height="100" viewBox="0 0 100 100"><rect x="0" y="0" width="100" height="100" fill="#ffffff"/><g transform="scale(3.03)"><g transform="translate(0,0)"><path fill-rule="evenodd" d="M8 0L8 4L10 4L10 3L11 3L11 4L12 4L12 2L11 2L11 0ZM12 0L12 1L13 1L13 2L14 2L14 3L13 3L13 5L11 5L11 6L10 6L10 7L9 7L9 5L8 5L8 7L9 7L9 8L10 8L10 7L11 7L11 6L12 6L12 8L11 8L11 9L9 9L9 10L8 10L8 11L9 11L9 10L11 10L11 11L10 11L10 13L11 13L11 12L12 12L12 13L13 13L13 15L12 15L12 16L11 16L11 17L12 17L12 18L11 18L11 19L10 19L10 17L9 17L9 15L10 15L10 14L8 14L8 13L7 13L7 12L6 12L6 13L5 13L5 12L4 12L4 9L5 9L5 10L6 10L6 11L7 11L7 10L6 10L6 9L7 9L7 8L4 8L4 9L2 9L2 8L0 8L0 13L1 13L1 11L2 11L2 14L1 14L1 15L2 15L2 16L3 16L3 17L2 17L2 18L3 18L3 17L4 17L4 18L6 18L6 19L8 19L8 20L9 20L9 21L7 21L7 20L6 20L6 21L7 21L7 22L6 22L6 23L5 23L5 20L4 20L4 22L3 22L3 19L1 19L1 16L0 16L0 19L1 19L1 21L0 21L0 22L2 22L2 24L0 24L0 25L2 25L2 24L3 24L3 25L5 25L5 24L6 24L6 25L8 25L8 26L9 26L9 24L10 24L10 25L11 25L11 26L10 26L10 28L11 28L11 27L12 27L12 26L14 26L14 28L15 28L15 31L14 31L14 29L13 29L13 30L12 30L12 29L9 29L9 27L8 27L8 29L9 29L9 31L8 31L8 33L10 33L10 31L11 31L11 32L12 32L12 33L13 33L13 31L14 31L14 32L17 32L17 33L18 33L18 31L19 31L19 29L20 29L20 30L21 30L21 29L22 29L22 28L24 28L24 29L23 29L23 30L22 30L22 31L20 31L20 33L22 33L22 32L23 32L23 31L24 31L24 33L25 33L25 31L27 31L27 32L26 32L26 33L27 33L27 32L28 32L28 31L29 31L29 32L30 32L30 31L32 31L32 30L33 30L33 27L32 27L32 26L31 26L31 25L32 25L32 24L33 24L33 23L31 23L31 22L32 22L32 21L33 21L33 19L32 19L32 17L29 17L29 15L32 15L32 16L33 16L33 15L32 15L32 14L31 14L31 13L30 13L30 14L28 14L28 15L27 15L27 16L24 16L24 17L23 17L23 18L22 18L22 19L21 19L21 18L20 18L20 19L21 19L21 20L19 20L19 19L18 19L18 18L19 18L19 17L18 17L18 15L17 15L17 14L16 14L16 11L17 11L17 13L18 13L18 14L19 14L19 13L23 13L23 15L24 15L24 13L23 13L23 12L22 12L22 11L25 11L25 13L29 13L29 11L28 11L28 10L27 10L27 11L28 11L28 12L26 12L26 11L25 11L25 10L24 10L24 9L25 9L25 6L24 6L24 7L23 7L23 6L22 6L22 7L21 7L21 5L22 5L22 4L21 4L21 3L23 3L23 5L24 5L24 4L25 4L25 3L23 3L23 1L24 1L24 2L25 2L25 1L24 1L24 0L22 0L22 1L21 1L21 0L20 0L20 1L19 1L19 0L18 0L18 1L17 1L17 0L15 0L15 1L13 1L13 0ZM15 1L15 2L16 2L16 4L17 4L17 5L15 5L15 4L14 4L14 5L15 5L15 7L14 7L14 6L13 6L13 8L12 8L12 9L11 9L11 10L12 10L12 9L16 9L16 10L19 10L19 12L18 12L18 13L19 13L19 12L20 12L20 9L19 9L19 8L18 8L18 9L17 9L17 8L16 8L16 6L17 6L17 7L18 7L18 6L17 6L17 5L20 5L20 4L17 4L17 1ZM9 2L9 3L10 3L10 2ZM18 2L18 3L19 3L19 2ZM20 2L20 3L21 3L21 2ZM19 6L19 7L20 7L20 8L21 8L21 7L20 7L20 6ZM22 7L22 8L23 8L23 9L21 9L21 11L22 11L22 10L23 10L23 9L24 9L24 8L23 8L23 7ZM27 8L27 9L28 9L28 8ZM29 8L29 10L30 10L30 9L31 9L31 12L32 12L32 13L33 13L33 12L32 12L32 9L33 9L33 8ZM1 9L1 10L2 10L2 11L3 11L3 10L2 10L2 9ZM13 10L13 11L12 11L12 12L13 12L13 13L14 13L14 10ZM3 13L3 15L5 15L5 16L4 16L4 17L6 17L6 18L7 18L7 17L8 17L8 16L7 16L7 15L6 15L6 14L7 14L7 13L6 13L6 14L5 14L5 13ZM14 14L14 15L13 15L13 18L14 18L14 19L13 19L13 20L12 20L12 23L10 23L10 21L11 21L11 20L10 20L10 21L9 21L9 22L7 22L7 23L6 23L6 24L7 24L7 23L8 23L8 24L9 24L9 23L10 23L10 24L11 24L11 25L12 25L12 24L13 24L13 25L14 25L14 26L15 26L15 25L17 25L17 26L18 26L18 28L16 28L16 29L17 29L17 30L16 30L16 31L17 31L17 30L18 30L18 29L19 29L19 27L20 27L20 28L21 28L21 27L22 27L22 26L23 26L23 27L24 27L24 24L27 24L27 23L28 23L28 24L29 24L29 26L30 26L30 25L31 25L31 23L30 23L30 24L29 24L29 23L28 23L28 22L30 22L30 21L31 21L31 20L32 20L32 19L31 19L31 18L29 18L29 17L25 17L25 18L24 18L24 19L25 19L25 20L26 20L26 19L27 19L27 18L29 18L29 19L28 19L28 20L30 20L30 21L25 21L25 22L24 22L24 23L23 23L23 24L22 24L22 25L20 25L20 24L19 24L19 26L18 26L18 25L17 25L17 24L15 24L15 22L14 22L14 23L13 23L13 21L14 21L14 20L15 20L15 17L16 17L16 18L18 18L18 17L17 17L17 16L16 16L16 15L15 15L15 14ZM20 14L20 17L22 17L22 14ZM6 16L6 17L7 17L7 16ZM14 16L14 17L15 17L15 16ZM8 18L8 19L9 19L9 18ZM16 19L16 21L17 21L17 22L16 22L16 23L22 23L22 22L21 22L21 21L19 21L19 20L18 20L18 21L17 21L17 19ZM22 20L22 21L23 21L23 20ZM25 22L25 23L26 23L26 22ZM4 23L4 24L5 24L5 23ZM25 25L25 28L28 28L28 25ZM26 26L26 27L27 27L27 26ZM30 27L30 29L29 29L29 30L31 30L31 29L32 29L32 28L31 28L31 27ZM32 32L32 33L33 33L33 32ZM0 0L0 7L7 7L7 0ZM1 1L1 6L6 6L6 1ZM2 2L2 5L5 5L5 2ZM26 0L26 7L33 7L33 0ZM27 1L27 6L32 6L32 1ZM28 2L28 5L31 5L31 2ZM0 26L0 33L7 33L7 26ZM1 27L1 32L6 32L6 27ZM2 28L2 31L5 31L5 28Z" fill="#000000"/></g></g></svg>
