<?xml version="1.0" encoding="UTF-8"?>
<svg xmlns="http://www.w3.org/2000/svg" version="1.1" width="100" height="100" viewBox="0 0 100 100"><rect x="0" y="0" width="100" height="100" fill="#ffffff"/><g transform="scale(3.03)"><g transform="translate(0,0)"><path fill-rule="evenodd" d="M9 0L9 1L8 1L8 2L9 2L9 3L8 3L8 4L10 4L10 7L11 7L11 4L12 4L12 5L13 5L13 6L12 6L12 7L13 7L13 6L14 6L14 7L15 7L15 8L13 8L13 9L14 9L14 11L15 11L15 12L13 12L13 10L12 10L12 8L6 8L6 9L5 9L5 8L0 8L0 9L5 9L5 10L4 10L4 12L3 12L3 13L2 13L2 14L3 14L3 13L4 13L4 15L3 15L3 16L4 16L4 17L3 17L3 18L4 18L4 19L5 19L5 20L6 20L6 21L9 21L9 23L8 23L8 27L9 27L9 26L10 26L10 27L11 27L11 26L12 26L12 25L11 25L11 26L10 26L10 25L9 25L9 24L10 24L10 23L11 23L11 24L13 24L13 25L14 25L14 24L15 24L15 23L16 23L16 24L17 24L17 25L16 25L16 26L15 26L15 27L16 27L16 26L18 26L18 27L19 27L19 28L20 28L20 27L19 27L19 26L22 26L22 25L20 25L20 24L22 24L22 23L18 23L18 24L17 24L17 21L18 21L18 20L17 20L17 18L18 18L18 19L19 19L19 18L20 18L20 19L21 19L21 20L22 20L22 19L21 19L21 18L22 18L22 17L20 17L20 16L24 16L24 17L23 17L23 18L24 18L24 19L25 19L25 20L23 20L23 21L22 21L22 22L24 22L24 23L23 23L23 24L24 24L24 26L23 26L23 27L24 27L24 29L23 29L23 30L25 30L25 31L27 31L27 32L24 32L24 31L23 31L23 32L24 32L24 33L28 33L28 32L29 32L29 31L28 31L28 30L29 30L29 29L30 29L30 28L31 28L31 27L32 27L32 29L33 29L33 27L32 27L32 26L33 26L33 23L30 23L30 24L32 24L32 25L30 25L30 26L31 26L31 27L30 27L30 28L29 28L29 23L27 23L27 24L25 24L25 22L28 22L28 21L30 21L30 22L31 22L31 21L30 21L30 20L31 20L31 19L32 19L32 20L33 20L33 19L32 19L32 18L33 18L33 15L32 15L32 14L33 14L33 13L32 13L32 10L33 10L33 9L32 9L32 8L31 8L31 9L32 9L32 10L30 10L30 8L29 8L29 10L28 10L28 8L27 8L27 9L26 9L26 8L24 8L24 9L23 9L23 6L22 6L22 5L21 5L21 6L20 6L20 7L19 7L19 5L20 5L20 4L21 4L21 3L22 3L22 4L23 4L23 5L24 5L24 4L23 4L23 3L25 3L25 1L24 1L24 0L21 0L21 1L22 1L22 2L21 2L21 3L20 3L20 2L19 2L19 1L20 1L20 0L18 0L18 1L17 1L17 2L18 2L18 3L19 3L19 4L17 4L17 5L15 5L15 6L14 6L14 5L13 5L13 4L14 4L14 3L12 3L12 2L13 2L13 1L14 1L14 2L16 2L16 1L14 1L14 0L13 0L13 1L11 1L11 2L10 2L10 0ZM23 1L23 2L22 2L22 3L23 3L23 2L24 2L24 1ZM10 3L10 4L11 4L11 3ZM15 3L15 4L16 4L16 3ZM8 5L8 7L9 7L9 5ZM15 6L15 7L16 7L16 8L15 8L15 10L16 10L16 11L17 11L17 12L18 12L18 13L22 13L22 14L23 14L23 15L24 15L24 14L25 14L25 13L28 13L28 14L29 14L29 15L28 15L28 16L27 16L27 14L26 14L26 16L25 16L25 17L28 17L28 19L29 19L29 17L31 17L31 18L32 18L32 17L31 17L31 16L32 16L32 15L31 15L31 14L30 14L30 13L31 13L31 12L29 12L29 11L28 11L28 10L25 10L25 9L24 9L24 10L23 10L23 9L22 9L22 8L21 8L21 7L22 7L22 6L21 6L21 7L20 7L20 8L19 8L19 7L18 7L18 6L17 6L17 7L16 7L16 6ZM24 6L24 7L25 7L25 6ZM17 8L17 9L16 9L16 10L17 10L17 11L19 11L19 10L20 10L20 12L22 12L22 13L23 13L23 14L24 14L24 13L23 13L23 12L25 12L25 11L21 11L21 10L22 10L22 9L21 9L21 10L20 10L20 9L19 9L19 10L17 10L17 9L18 9L18 8ZM6 9L6 10L5 10L5 11L6 11L6 12L4 12L4 13L6 13L6 14L5 14L5 15L4 15L4 16L5 16L5 15L6 15L6 16L7 16L7 15L6 15L6 14L7 14L7 13L6 13L6 12L7 12L7 11L6 11L6 10L8 10L8 14L9 14L9 9ZM10 9L10 11L12 11L12 10L11 10L11 9ZM0 10L0 13L1 13L1 12L2 12L2 11L3 11L3 10ZM26 11L26 12L28 12L28 13L29 13L29 12L28 12L28 11ZM10 12L10 13L12 13L12 12ZM15 13L15 14L13 14L13 16L10 16L10 17L9 17L9 18L8 18L8 20L9 20L9 21L10 21L10 22L11 22L11 23L13 23L13 24L14 24L14 22L16 22L16 21L17 21L17 20L16 20L16 19L15 19L15 18L16 18L16 17L17 17L17 16L18 16L18 17L19 17L19 16L20 16L20 14L19 14L19 16L18 16L18 14L17 14L17 15L16 15L16 17L15 17L15 18L14 18L14 17L13 17L13 16L14 16L14 15L15 15L15 14L16 14L16 13ZM10 14L10 15L12 15L12 14ZM8 15L8 16L9 16L9 15ZM29 15L29 16L28 16L28 17L29 17L29 16L31 16L31 15ZM0 16L0 25L1 25L1 22L2 22L2 25L4 25L4 24L6 24L6 25L7 25L7 24L6 24L6 23L7 23L7 22L4 22L4 20L3 20L3 21L1 21L1 18L2 18L2 17L1 17L1 16ZM4 17L4 18L7 18L7 17ZM10 17L10 18L12 18L12 17ZM25 18L25 19L26 19L26 20L25 20L25 21L28 21L28 20L27 20L27 18ZM6 19L6 20L7 20L7 19ZM10 19L10 21L11 21L11 22L12 22L12 21L16 21L16 20L12 20L12 21L11 21L11 19ZM19 21L19 22L21 22L21 21ZM32 21L32 22L33 22L33 21ZM3 22L3 24L4 24L4 22ZM18 24L18 25L19 25L19 24ZM25 25L25 28L28 28L28 25ZM13 26L13 27L14 27L14 26ZM26 26L26 27L27 27L27 26ZM21 27L21 28L22 28L22 27ZM8 28L8 33L9 33L9 32L10 32L10 33L11 33L11 32L12 32L12 33L14 33L14 32L13 32L13 31L14 31L14 30L15 30L15 33L16 33L16 30L17 30L17 31L18 31L18 32L17 32L17 33L20 33L20 32L22 32L22 31L20 31L20 32L19 32L19 30L20 30L20 29L19 29L19 30L18 30L18 28L17 28L17 29L16 29L16 28L15 28L15 29L14 29L14 28L13 28L13 30L12 30L12 29L11 29L11 28ZM10 29L10 30L9 30L9 31L10 31L10 32L11 32L11 31L12 31L12 30L11 30L11 29ZM21 29L21 30L22 30L22 29ZM25 29L25 30L28 30L28 29ZM10 30L10 31L11 31L11 30ZM31 30L31 31L30 31L30 32L31 32L31 33L32 33L32 32L31 32L31 31L32 31L32 30ZM0 0L0 7L7 7L7 0ZM1 1L1 6L6 6L6 1ZM2 2L2 5L5 5L5 2ZM26 0L26 7L33 7L33 0ZM27 1L27 6L32 6L32 1ZM28 2L28 5L31 5L31 2ZM0 26L0 33L7 33L7 26ZM1 27L1 32L6 32L6 27ZM2 28L2 31L5 31L5 28Z" fill="#000000"/></g></g></svg>
