<?xml version="1.0" encoding="UTF-8"?>
<svg xmlns="http://www.w3.org/2000/svg" version="1.1" width="100" height="100" viewBox="0 0 100 100"><rect x="0" y="0" width="100" height="100" fill="#ffffff"/><g transform="scale(3.03)"><g transform="translate(0,0)"><path fill-rule="evenodd" d="M9 0L9 1L8 1L8 2L9 2L9 3L8 3L8 4L9 4L9 3L10 3L10 5L8 5L8 7L9 7L9 8L6 8L6 9L5 9L5 8L0 8L0 9L1 9L1 11L0 11L0 13L1 13L1 14L0 14L0 15L1 15L1 14L2 14L2 15L5 15L5 16L6 16L6 17L5 17L5 18L6 18L6 19L3 19L3 18L4 18L4 17L3 17L3 18L2 18L2 17L1 17L1 19L0 19L0 25L1 25L1 22L2 22L2 23L3 23L3 24L2 24L2 25L4 25L4 24L5 24L5 25L8 25L8 27L9 27L9 25L10 25L10 26L12 26L12 27L10 27L10 29L9 29L9 28L8 28L8 33L11 33L11 30L13 30L13 29L14 29L14 30L15 30L15 32L12 32L12 33L15 33L15 32L16 32L16 30L17 30L17 31L19 31L19 30L20 30L20 29L19 29L19 30L17 30L17 29L18 29L18 28L17 28L17 27L16 27L16 26L18 26L18 27L19 27L19 28L20 28L20 27L19 27L19 26L22 26L22 25L20 25L20 24L22 24L22 23L19 23L19 22L21 22L21 21L19 21L19 22L15 22L15 21L16 21L16 18L17 18L17 19L19 19L19 18L20 18L20 19L21 19L21 20L22 20L22 19L21 19L21 18L22 18L22 17L20 17L20 16L24 16L24 17L23 17L23 18L24 18L24 19L25 19L25 18L27 18L27 19L26 19L26 20L28 20L28 21L25 21L25 20L23 20L23 21L22 21L22 22L24 22L24 23L23 23L23 24L24 24L24 26L23 26L23 27L24 27L24 29L23 29L23 30L24 30L24 31L23 31L23 32L24 32L24 33L25 33L25 32L24 32L24 31L27 31L27 33L28 33L28 32L29 32L29 31L28 31L28 30L29 30L29 29L30 29L30 28L31 28L31 29L33 29L33 28L32 28L32 26L33 26L33 23L30 23L30 24L32 24L32 25L30 25L30 26L31 26L31 27L30 27L30 28L29 28L29 23L27 23L27 24L26 24L26 22L28 22L28 21L30 21L30 22L31 22L31 21L30 21L30 20L31 20L31 19L32 19L32 20L33 20L33 19L32 19L32 18L33 18L33 15L32 15L32 14L33 14L33 13L32 13L32 10L33 10L33 9L32 9L32 8L31 8L31 9L32 9L32 10L30 10L30 8L29 8L29 10L28 10L28 8L27 8L27 9L26 9L26 8L24 8L24 9L23 9L23 6L22 6L22 5L21 5L21 6L20 6L20 7L19 7L19 5L20 5L20 4L21 4L21 3L22 3L22 4L23 4L23 5L24 5L24 4L23 4L23 3L25 3L25 1L24 1L24 0L21 0L21 1L22 1L22 2L21 2L21 3L20 3L20 2L19 2L19 1L20 1L20 0L18 0L18 1L17 1L17 0L16 0L16 1L14 1L14 2L15 2L15 3L13 3L13 0L11 0L11 1L12 1L12 2L11 2L11 3L10 3L10 2L9 2L9 1L10 1L10 0ZM23 1L23 2L22 2L22 3L23 3L23 2L24 2L24 1ZM17 2L17 3L16 3L16 4L14 4L14 5L13 5L13 3L11 3L11 4L12 4L12 5L11 5L11 8L10 8L10 9L8 9L8 10L9 10L9 12L8 12L8 11L6 11L6 10L7 10L7 9L6 9L6 10L5 10L5 12L8 12L8 14L9 14L9 15L8 15L8 16L7 16L7 15L6 15L6 14L7 14L7 13L6 13L6 14L5 14L5 13L4 13L4 14L5 14L5 15L6 15L6 16L7 16L7 17L6 17L6 18L8 18L8 17L9 17L9 15L11 15L11 16L10 16L10 17L12 17L12 18L11 18L11 19L9 19L9 20L11 20L11 21L8 21L8 19L6 19L6 20L7 20L7 21L6 21L6 22L7 22L7 21L8 21L8 23L6 23L6 24L8 24L8 23L9 23L9 22L11 22L11 23L12 23L12 22L11 22L11 21L12 21L12 20L11 20L11 19L12 19L12 18L14 18L14 19L13 19L13 20L15 20L15 16L18 16L18 17L19 17L19 16L20 16L20 14L17 14L17 15L14 15L14 14L16 14L16 13L15 13L15 10L16 10L16 9L17 9L17 12L18 12L18 13L22 13L22 14L23 14L23 15L24 15L24 14L25 14L25 17L28 17L28 19L29 19L29 17L31 17L31 18L32 18L32 17L31 17L31 16L32 16L32 15L31 15L31 14L30 14L30 13L31 13L31 12L29 12L29 11L28 11L28 10L26 10L26 12L23 12L23 13L22 13L22 12L20 12L20 10L21 10L21 11L25 11L25 9L24 9L24 10L23 10L23 9L22 9L22 8L21 8L21 7L22 7L22 6L21 6L21 7L20 7L20 8L18 8L18 6L17 6L17 5L19 5L19 3L18 3L18 2ZM16 4L16 5L15 5L15 6L14 6L14 8L12 8L12 9L11 9L11 10L10 10L10 11L11 11L11 12L9 12L9 14L10 14L10 13L11 13L11 14L12 14L12 13L11 13L11 12L13 12L13 14L14 14L14 12L13 12L13 11L14 11L14 10L13 10L13 11L11 11L11 10L12 10L12 9L14 9L14 8L15 8L15 9L16 9L16 8L15 8L15 6L16 6L16 7L17 7L17 6L16 6L16 5L17 5L17 4ZM9 6L9 7L10 7L10 6ZM12 6L12 7L13 7L13 6ZM24 6L24 7L25 7L25 6ZM17 8L17 9L18 9L18 11L19 11L19 10L20 10L20 9L18 9L18 8ZM2 9L2 10L3 10L3 11L1 11L1 12L3 12L3 11L4 11L4 9ZM21 9L21 10L22 10L22 9ZM27 11L27 12L28 12L28 13L25 13L25 14L26 14L26 15L27 15L27 16L28 16L28 17L29 17L29 16L31 16L31 15L29 15L29 14L28 14L28 13L29 13L29 12L28 12L28 11ZM2 13L2 14L3 14L3 13ZM23 13L23 14L24 14L24 13ZM28 15L28 16L29 16L29 15ZM13 16L13 17L14 17L14 16ZM1 19L1 20L2 20L2 19ZM4 20L4 21L3 21L3 22L4 22L4 21L5 21L5 20ZM17 20L17 21L18 21L18 20ZM13 21L13 24L12 24L12 25L13 25L13 24L15 24L15 23L14 23L14 21ZM32 21L32 22L33 22L33 21ZM16 23L16 25L15 25L15 26L13 26L13 28L14 28L14 27L15 27L15 30L16 30L16 29L17 29L17 28L16 28L16 27L15 27L15 26L16 26L16 25L17 25L17 24L18 24L18 25L19 25L19 24L18 24L18 23ZM10 24L10 25L11 25L11 24ZM25 25L25 28L28 28L28 25ZM26 26L26 27L27 27L27 26ZM21 27L21 28L22 28L22 27ZM11 28L11 29L12 29L12 28ZM21 29L21 30L22 30L22 29ZM24 29L24 30L28 30L28 29ZM31 30L31 31L30 31L30 32L31 32L31 33L32 33L32 32L31 32L31 31L32 31L32 30ZM9 31L9 32L10 32L10 31ZM20 31L20 32L19 32L19 33L20 33L20 32L22 32L22 31ZM17 32L17 33L18 33L18 32ZM0 0L0 7L7 7L7 0ZM1 1L1 6L6 6L6 1ZM2 2L2 5L5 5L5 2ZM26 0L26 7L33 7L33 0ZM27 1L27 6L32 6L32 1ZM28 2L28 5L31 5L31 2ZM0 26L0 33L7 33L7 26ZM1 27L1 32L6 32L6 27ZM2 28L2 31L5 31L5 28Z" fill="#000000"/></g></g></svg>
