<?xml version="1.0" encoding="UTF-8"?>
<svg xmlns="http://www.w3.org/2000/svg" version="1.1" width="100" height="100" viewBox="0 0 100 100"><rect x="0" y="0" width="100" height="100" fill="#ffffff"/><g transform="scale(3.03)"><g transform="translate(0,0)"><path fill-rule="evenodd" d="M9 0L9 1L8 1L8 2L9 2L9 3L8 3L8 4L9 4L9 5L8 5L8 7L9 7L9 8L6 8L6 9L5 9L5 8L0 8L0 9L2 9L2 10L0 10L0 11L1 11L1 13L0 13L0 15L1 15L1 14L2 14L2 13L3 13L3 16L4 16L4 17L1 17L1 16L0 16L0 17L1 17L1 18L2 18L2 19L3 19L3 20L2 20L2 21L0 21L0 25L1 25L1 22L2 22L2 23L3 23L3 24L4 24L4 25L5 25L5 24L4 24L4 23L7 23L7 24L6 24L6 25L8 25L8 27L9 27L9 28L8 28L8 33L10 33L10 32L11 32L11 30L12 30L12 32L13 32L13 33L16 33L16 30L17 30L17 29L18 29L18 32L17 32L17 33L20 33L20 32L22 32L22 31L20 31L20 32L19 32L19 30L20 30L20 29L19 29L19 28L20 28L20 27L18 27L18 28L17 28L17 29L16 29L16 28L12 28L12 29L10 29L10 24L9 24L9 25L8 25L8 21L7 21L7 20L6 20L6 19L8 19L8 20L9 20L9 21L11 21L11 22L9 22L9 23L11 23L11 24L12 24L12 25L11 25L11 26L13 26L13 25L14 25L14 27L16 27L16 26L17 26L17 25L18 25L18 26L22 26L22 25L20 25L20 24L22 24L22 23L19 23L19 22L21 22L21 21L18 21L18 20L19 20L19 18L20 18L20 19L21 19L21 20L22 20L22 19L21 19L21 18L22 18L22 17L20 17L20 16L24 16L24 17L23 17L23 18L24 18L24 19L25 19L25 18L27 18L27 19L26 19L26 20L28 20L28 21L25 21L25 20L23 20L23 21L22 21L22 22L24 22L24 23L23 23L23 24L24 24L24 26L23 26L23 27L24 27L24 29L23 29L23 32L24 32L24 33L25 33L25 32L26 32L26 31L27 31L27 33L28 33L28 32L29 32L29 31L28 31L28 30L29 30L29 29L30 29L30 28L31 28L31 29L33 29L33 27L32 27L32 26L33 26L33 23L30 23L30 24L32 24L32 25L30 25L30 26L31 26L31 27L30 27L30 28L29 28L29 23L27 23L27 24L26 24L26 23L25 23L25 22L28 22L28 21L30 21L30 22L31 22L31 21L30 21L30 20L31 20L31 19L32 19L32 20L33 20L33 19L32 19L32 18L33 18L33 15L32 15L32 14L33 14L33 13L32 13L32 10L33 10L33 9L32 9L32 8L31 8L31 9L32 9L32 10L30 10L30 8L29 8L29 12L28 12L28 8L27 8L27 9L26 9L26 8L24 8L24 9L23 9L23 6L22 6L22 5L21 5L21 6L20 6L20 7L19 7L19 5L20 5L20 4L21 4L21 3L22 3L22 4L23 4L23 5L24 5L24 4L23 4L23 3L25 3L25 1L24 1L24 0L21 0L21 1L22 1L22 2L21 2L21 3L20 3L20 2L19 2L19 1L20 1L20 0L18 0L18 1L17 1L17 0L16 0L16 1L14 1L14 0L13 0L13 2L14 2L14 3L12 3L12 4L11 4L11 5L12 5L12 4L13 4L13 6L12 6L12 7L11 7L11 6L10 6L10 7L9 7L9 5L10 5L10 4L9 4L9 3L10 3L10 2L9 2L9 1L12 1L12 0ZM16 1L16 3L15 3L15 4L14 4L14 6L13 6L13 8L11 8L11 7L10 7L10 8L9 8L9 9L8 9L8 10L7 10L7 9L6 9L6 10L7 10L7 11L6 11L6 12L7 12L7 11L9 11L9 10L10 10L10 8L11 8L11 9L12 9L12 10L11 10L11 12L10 12L10 14L7 14L7 13L5 13L5 14L4 14L4 15L5 15L5 16L8 16L8 15L10 15L10 16L9 16L9 17L10 17L10 16L11 16L11 17L12 17L12 16L11 16L11 15L12 15L12 14L14 14L14 15L13 15L13 16L14 16L14 18L13 18L13 20L12 20L12 21L13 21L13 22L14 22L14 23L13 23L13 24L15 24L15 22L16 22L16 21L17 21L17 20L18 20L18 19L17 19L17 18L19 18L19 16L20 16L20 14L16 14L16 13L17 13L17 12L18 12L18 13L22 13L22 14L23 14L23 15L24 15L24 14L25 14L25 13L28 13L28 15L27 15L27 14L26 14L26 16L25 16L25 17L28 17L28 19L29 19L29 17L31 17L31 18L32 18L32 17L31 17L31 16L32 16L32 15L31 15L31 14L30 14L30 13L31 13L31 12L29 12L29 13L28 13L28 12L27 12L27 10L25 10L25 9L24 9L24 10L23 10L23 9L22 9L22 8L21 8L21 7L22 7L22 6L21 6L21 7L20 7L20 8L19 8L19 7L18 7L18 6L17 6L17 5L19 5L19 3L18 3L18 2L17 2L17 1ZM23 1L23 2L22 2L22 3L23 3L23 2L24 2L24 1ZM16 4L16 5L15 5L15 6L14 6L14 8L13 8L13 10L14 10L14 9L16 9L16 10L15 10L15 11L14 11L14 12L13 12L13 13L14 13L14 12L15 12L15 13L16 13L16 11L17 11L17 9L18 9L18 11L19 11L19 10L20 10L20 12L22 12L22 13L23 13L23 14L24 14L24 13L23 13L23 12L25 12L25 11L21 11L21 10L22 10L22 9L21 9L21 10L20 10L20 9L18 9L18 8L17 8L17 6L16 6L16 5L17 5L17 4ZM15 6L15 7L16 7L16 6ZM24 6L24 7L25 7L25 6ZM3 9L3 10L2 10L2 12L3 12L3 13L4 13L4 12L5 12L5 10L4 10L4 9ZM3 10L3 12L4 12L4 10ZM8 12L8 13L9 13L9 12ZM11 13L11 14L10 14L10 15L11 15L11 14L12 14L12 13ZM6 14L6 15L7 15L7 14ZM15 14L15 16L16 16L16 14ZM29 15L29 16L28 16L28 17L29 17L29 16L31 16L31 15ZM17 16L17 17L16 17L16 18L14 18L14 19L15 19L15 21L16 21L16 20L17 20L17 19L16 19L16 18L17 18L17 17L18 17L18 16ZM5 17L5 18L4 18L4 19L6 19L6 18L7 18L7 17ZM8 18L8 19L9 19L9 18ZM11 18L11 19L12 19L12 18ZM3 20L3 21L2 21L2 22L3 22L3 21L5 21L5 22L7 22L7 21L6 21L6 20ZM13 20L13 21L14 21L14 20ZM32 21L32 22L33 22L33 21ZM11 22L11 23L12 23L12 22ZM17 22L17 24L18 24L18 25L19 25L19 23L18 23L18 22ZM15 25L15 26L16 26L16 25ZM25 25L25 28L28 28L28 25ZM26 26L26 27L27 27L27 26ZM21 27L21 28L22 28L22 27ZM31 27L31 28L32 28L32 27ZM9 29L9 30L10 30L10 29ZM12 29L12 30L13 30L13 32L14 32L14 31L15 31L15 30L13 30L13 29ZM21 29L21 30L22 30L22 29ZM24 29L24 30L28 30L28 29ZM31 30L31 31L30 31L30 32L31 32L31 33L32 33L32 32L31 32L31 31L32 31L32 30ZM24 31L24 32L25 32L25 31ZM0 0L0 7L7 7L7 0ZM1 1L1 6L6 6L6 1ZM2 2L2 5L5 5L5 2ZM26 0L26 7L33 7L33 0ZM27 1L27 6L32 6L32 1ZM28 2L28 5L31 5L31 2ZM0 26L0 33L7 33L7 26ZM1 27L1 32L6 32L6 27ZM2 28L2 31L5 31L5 28Z" fill="#000000"/></g></g></svg>
