<?xml version="1.0" encoding="UTF-8"?>
<svg xmlns="http://www.w3.org/2000/svg" version="1.1" width="100" height="100" viewBox="0 0 100 100"><rect x="0" y="0" width="100" height="100" fill="#ffffff"/><g transform="scale(3.03)"><g transform="translate(0,0)"><path fill-rule="evenodd" d="M9 0L9 1L8 1L8 2L9 2L9 3L8 3L8 4L10 4L10 7L11 7L11 4L12 4L12 5L15 5L15 6L14 6L14 8L13 8L13 6L12 6L12 9L14 9L14 10L15 10L15 11L16 11L16 10L15 10L15 8L17 8L17 9L18 9L18 11L19 11L19 10L20 10L20 12L22 12L22 13L18 13L18 12L17 12L17 14L20 14L20 16L19 16L19 17L18 17L18 16L15 16L15 15L16 15L16 14L14 14L14 16L13 16L13 17L14 17L14 16L15 16L15 17L16 17L16 18L15 18L15 21L14 21L14 20L13 20L13 19L14 19L14 18L12 18L12 16L11 16L11 13L12 13L12 14L13 14L13 13L16 13L16 12L12 12L12 11L13 11L13 10L11 10L11 11L10 11L10 9L11 9L11 8L6 8L6 9L5 9L5 8L0 8L0 9L2 9L2 11L1 11L1 10L0 10L0 11L1 11L1 13L0 13L0 14L1 14L1 13L2 13L2 14L3 14L3 15L1 15L1 16L0 16L0 18L2 18L2 20L1 20L1 19L0 19L0 25L1 25L1 21L2 21L2 22L3 22L3 21L4 21L4 22L5 22L5 23L4 23L4 24L5 24L5 23L7 23L7 24L6 24L6 25L7 25L7 24L9 24L9 25L8 25L8 27L9 27L9 25L10 25L10 24L13 24L13 25L14 25L14 24L13 24L13 23L14 23L14 22L15 22L15 23L16 23L16 24L17 24L17 25L16 25L16 26L15 26L15 28L12 28L12 29L11 29L11 28L10 28L10 29L9 29L9 28L8 28L8 33L11 33L11 32L13 32L13 33L18 33L18 32L19 32L19 33L20 33L20 32L22 32L22 31L20 31L20 32L19 32L19 30L20 30L20 29L19 29L19 28L20 28L20 27L19 27L19 26L22 26L22 25L20 25L20 24L22 24L22 23L19 23L19 26L17 26L17 25L18 25L18 24L17 24L17 23L16 23L16 22L17 22L17 21L18 21L18 22L21 22L21 21L18 21L18 20L17 20L17 21L16 21L16 19L17 19L17 17L18 17L18 18L20 18L20 19L21 19L21 20L22 20L22 19L21 19L21 18L22 18L22 17L20 17L20 16L24 16L24 17L23 17L23 18L24 18L24 19L25 19L25 18L27 18L27 19L26 19L26 20L28 20L28 21L25 21L25 20L23 20L23 21L22 21L22 22L24 22L24 23L23 23L23 24L24 24L24 26L23 26L23 27L24 27L24 29L23 29L23 32L24 32L24 33L28 33L28 32L29 32L29 31L28 31L28 30L29 30L29 29L30 29L30 28L31 28L31 27L32 27L32 26L33 26L33 23L30 23L30 24L32 24L32 25L30 25L30 26L31 26L31 27L30 27L30 28L29 28L29 23L27 23L27 24L25 24L25 23L26 23L26 22L28 22L28 21L30 21L30 22L31 22L31 21L30 21L30 20L31 20L31 19L32 19L32 20L33 20L33 19L32 19L32 18L33 18L33 15L32 15L32 14L33 14L33 13L32 13L32 10L33 10L33 9L32 9L32 8L31 8L31 9L32 9L32 10L30 10L30 8L29 8L29 12L28 12L28 11L27 11L27 12L28 12L28 13L25 13L25 14L24 14L24 13L23 13L23 12L25 12L25 11L26 11L26 10L28 10L28 8L27 8L27 9L26 9L26 8L24 8L24 9L23 9L23 6L22 6L22 5L21 5L21 6L20 6L20 7L19 7L19 5L20 5L20 4L21 4L21 3L22 3L22 4L23 4L23 5L24 5L24 4L23 4L23 3L25 3L25 1L24 1L24 0L21 0L21 1L22 1L22 2L21 2L21 3L20 3L20 2L19 2L19 1L20 1L20 0L18 0L18 1L17 1L17 0L16 0L16 1L15 1L15 0L14 0L14 2L16 2L16 1L17 1L17 2L18 2L18 3L17 3L17 4L18 4L18 3L19 3L19 5L17 5L17 6L16 6L16 5L15 5L15 4L16 4L16 3L13 3L13 4L12 4L12 2L13 2L13 1L11 1L11 2L10 2L10 0ZM23 1L23 2L22 2L22 3L23 3L23 2L24 2L24 1ZM10 3L10 4L11 4L11 3ZM8 5L8 7L9 7L9 5ZM15 6L15 7L16 7L16 6ZM17 6L17 8L18 8L18 9L20 9L20 10L21 10L21 11L25 11L25 9L24 9L24 10L23 10L23 9L22 9L22 8L21 8L21 7L22 7L22 6L21 6L21 7L20 7L20 8L19 8L19 7L18 7L18 6ZM24 6L24 7L25 7L25 6ZM4 9L4 10L3 10L3 11L4 11L4 12L2 12L2 13L3 13L3 14L4 14L4 15L3 15L3 16L4 16L4 17L3 17L3 18L4 18L4 19L5 19L5 22L7 22L7 23L8 23L8 22L9 22L9 24L10 24L10 23L12 23L12 22L10 22L10 21L8 21L8 20L7 20L7 19L8 19L8 18L9 18L9 20L10 20L10 18L11 18L11 19L12 19L12 18L11 18L11 17L10 17L10 18L9 18L9 17L8 17L8 16L7 16L7 15L9 15L9 13L8 13L8 14L7 14L7 13L6 13L6 12L7 12L7 11L8 11L8 12L9 12L9 11L8 11L8 10L9 10L9 9L6 9L6 10L7 10L7 11L6 11L6 12L5 12L5 11L4 11L4 10L5 10L5 9ZM21 9L21 10L22 10L22 9ZM4 12L4 14L5 14L5 12ZM10 12L10 13L11 13L11 12ZM29 12L29 13L28 13L28 15L27 15L27 14L26 14L26 15L25 15L25 17L28 17L28 19L29 19L29 17L31 17L31 18L32 18L32 17L31 17L31 16L32 16L32 15L31 15L31 14L30 14L30 13L31 13L31 12ZM22 13L22 14L23 14L23 15L24 15L24 14L23 14L23 13ZM6 14L6 15L5 15L5 17L4 17L4 18L5 18L5 17L7 17L7 18L6 18L6 19L7 19L7 18L8 18L8 17L7 17L7 16L6 16L6 15L7 15L7 14ZM26 15L26 16L27 16L27 15ZM29 15L29 16L28 16L28 17L29 17L29 16L31 16L31 15ZM1 16L1 17L2 17L2 16ZM2 20L2 21L3 21L3 20ZM6 20L6 21L7 21L7 20ZM11 20L11 21L12 21L12 20ZM15 21L15 22L16 22L16 21ZM32 21L32 22L33 22L33 21ZM2 24L2 25L3 25L3 24ZM11 25L11 26L12 26L12 25ZM25 25L25 28L28 28L28 25ZM13 26L13 27L14 27L14 26ZM26 26L26 27L27 27L27 26ZM17 27L17 28L18 28L18 27ZM21 27L21 28L22 28L22 27ZM32 28L32 29L33 29L33 28ZM12 29L12 30L11 30L11 31L13 31L13 32L14 32L14 29ZM15 29L15 30L16 30L16 29ZM17 29L17 31L15 31L15 32L18 32L18 29ZM21 29L21 30L22 30L22 29ZM24 29L24 30L28 30L28 29ZM31 30L31 31L30 31L30 32L31 32L31 33L32 33L32 32L31 32L31 31L32 31L32 30ZM24 31L24 32L27 32L27 31ZM0 0L0 7L7 7L7 0ZM1 1L1 6L6 6L6 1ZM2 2L2 5L5 5L5 2ZM26 0L26 7L33 7L33 0ZM27 1L27 6L32 6L32 1ZM28 2L28 5L31 5L31 2ZM0 26L0 33L7 33L7 26ZM1 27L1 32L6 32L6 27ZM2 28L2 31L5 31L5 28Z" fill="#000000"/></g></g></svg>
