<?xml version="1.0" encoding="UTF-8"?>
<svg xmlns="http://www.w3.org/2000/svg" version="1.1" width="100" height="100" viewBox="0 0 100 100"><rect x="0" y="0" width="100" height="100" fill="#ffffff"/><g transform="scale(3.03)"><g transform="translate(0,0)"><path fill-rule="evenodd" d="M8 0L8 4L9 4L9 5L8 5L8 7L9 7L9 8L10 8L10 7L11 7L11 8L12 8L12 9L11 9L11 11L10 11L10 13L8 13L8 14L6 14L6 13L7 13L7 12L9 12L9 11L8 11L8 10L6 10L6 9L7 9L7 8L4 8L4 9L5 9L5 10L6 10L6 11L5 11L5 12L6 12L6 13L5 13L5 16L4 16L4 15L3 15L3 16L4 16L4 17L3 17L3 18L4 18L4 19L3 19L3 20L2 20L2 19L1 19L1 18L2 18L2 14L4 14L4 12L3 12L3 13L0 13L0 15L1 15L1 16L0 16L0 17L1 17L1 18L0 18L0 19L1 19L1 20L0 20L0 22L3 22L3 20L4 20L4 23L5 23L5 24L3 24L3 23L2 23L2 24L0 24L0 25L2 25L2 24L3 24L3 25L7 25L7 24L6 24L6 23L8 23L8 26L9 26L9 27L8 27L8 29L9 29L9 30L10 30L10 31L8 31L8 33L10 33L10 32L12 32L12 33L13 33L13 30L14 30L14 29L13 29L13 28L12 28L12 29L11 29L11 30L10 30L10 28L11 28L11 27L12 27L12 26L13 26L13 25L12 25L12 24L10 24L10 25L9 25L9 23L10 23L10 22L11 22L11 23L12 23L12 22L14 22L14 23L15 23L15 24L17 24L17 25L15 25L15 27L14 27L14 28L15 28L15 32L16 32L16 33L18 33L18 32L19 32L19 31L17 31L17 32L16 32L16 30L19 30L19 29L20 29L20 30L21 30L21 29L22 29L22 28L24 28L24 29L23 29L23 30L22 30L22 31L20 31L20 33L22 33L22 32L23 32L23 30L25 30L25 31L24 31L24 33L25 33L25 32L26 32L26 31L27 31L27 32L28 32L28 31L29 31L29 32L30 32L30 31L32 31L32 30L33 30L33 29L31 29L31 30L29 30L29 29L30 29L30 27L31 27L31 28L32 28L32 26L31 26L31 25L32 25L32 24L33 24L33 23L31 23L31 22L32 22L32 21L33 21L33 19L32 19L32 17L29 17L29 15L32 15L32 16L33 16L33 15L32 15L32 14L31 14L31 13L30 13L30 14L27 14L27 15L25 15L25 16L24 16L24 17L23 17L23 18L22 18L22 19L21 19L21 18L20 18L20 19L21 19L21 20L19 20L19 17L18 17L18 15L19 15L19 13L23 13L23 15L24 15L24 13L23 13L23 12L22 12L22 11L25 11L25 10L24 10L24 9L25 9L25 6L24 6L24 7L23 7L23 6L22 6L22 7L21 7L21 5L22 5L22 4L21 4L21 3L23 3L23 5L24 5L24 4L25 4L25 3L23 3L23 1L24 1L24 2L25 2L25 1L24 1L24 0L22 0L22 1L21 1L21 0L20 0L20 1L19 1L19 0L18 0L18 1L17 1L17 0L11 0L11 1L12 1L12 2L14 2L14 3L11 3L11 2L10 2L10 1L9 1L9 0ZM15 1L15 4L14 4L14 5L13 5L13 4L12 4L12 5L11 5L11 7L12 7L12 6L13 6L13 9L12 9L12 10L13 10L13 9L14 9L14 8L15 8L15 9L16 9L16 8L17 8L17 7L18 7L18 9L19 9L19 10L18 10L18 11L19 11L19 12L18 12L18 13L19 13L19 12L20 12L20 9L19 9L19 7L20 7L20 8L21 8L21 7L20 7L20 6L19 6L19 7L18 7L18 6L17 6L17 7L16 7L16 5L15 5L15 4L16 4L16 3L17 3L17 1ZM18 2L18 3L19 3L19 2ZM20 2L20 3L21 3L21 2ZM9 3L9 4L11 4L11 3ZM17 4L17 5L18 5L18 4ZM19 4L19 5L20 5L20 4ZM9 5L9 7L10 7L10 5ZM14 5L14 7L15 7L15 8L16 8L16 7L15 7L15 5ZM22 7L22 8L23 8L23 9L21 9L21 11L22 11L22 10L23 10L23 9L24 9L24 8L23 8L23 7ZM0 8L0 9L2 9L2 10L0 10L0 12L2 12L2 10L3 10L3 11L4 11L4 10L3 10L3 9L2 9L2 8ZM27 8L27 9L28 9L28 8ZM29 8L29 10L28 10L28 11L27 11L27 10L26 10L26 11L27 11L27 12L25 12L25 13L29 13L29 10L30 10L30 9L31 9L31 12L32 12L32 13L33 13L33 12L32 12L32 9L33 9L33 8ZM9 9L9 10L10 10L10 9ZM14 10L14 11L11 11L11 13L10 13L10 14L8 14L8 15L10 15L10 16L9 16L9 17L6 17L6 16L7 16L7 15L6 15L6 16L5 16L5 17L6 17L6 18L5 18L5 19L4 19L4 20L7 20L7 21L6 21L6 22L5 22L5 23L6 23L6 22L7 22L7 21L9 21L9 20L7 20L7 19L6 19L6 18L8 18L8 19L9 19L9 18L10 18L10 17L12 17L12 19L11 19L11 20L10 20L10 21L12 21L12 20L13 20L13 21L14 21L14 22L15 22L15 21L16 21L16 19L15 19L15 18L14 18L14 19L13 19L13 17L14 17L14 16L15 16L15 17L16 17L16 18L17 18L17 19L18 19L18 18L17 18L17 16L15 16L15 15L14 15L14 12L15 12L15 14L16 14L16 11L17 11L17 10L16 10L16 11L15 11L15 10ZM6 11L6 12L7 12L7 11ZM11 13L11 16L13 16L13 14L12 14L12 13ZM17 14L17 15L18 15L18 14ZM20 14L20 17L22 17L22 14ZM27 15L27 16L28 16L28 15ZM25 17L25 18L24 18L24 19L25 19L25 18L26 18L26 19L27 19L27 18L29 18L29 19L28 19L28 20L30 20L30 21L25 21L25 22L24 22L24 23L23 23L23 24L22 24L22 25L20 25L20 24L19 24L19 23L22 23L22 22L21 22L21 21L19 21L19 20L18 20L18 21L17 21L17 22L16 22L16 23L17 23L17 22L18 22L18 21L19 21L19 23L18 23L18 24L19 24L19 26L18 26L18 25L17 25L17 26L16 26L16 29L17 29L17 26L18 26L18 29L19 29L19 27L20 27L20 28L21 28L21 27L22 27L22 26L23 26L23 27L24 27L24 24L27 24L27 23L28 23L28 24L29 24L29 26L30 26L30 25L31 25L31 23L30 23L30 24L29 24L29 23L28 23L28 22L30 22L30 21L31 21L31 20L32 20L32 19L31 19L31 18L29 18L29 17ZM22 20L22 21L23 21L23 20ZM25 25L25 28L28 28L28 25ZM10 26L10 27L9 27L9 28L10 28L10 27L11 27L11 26ZM26 26L26 27L27 27L27 26ZM32 32L32 33L33 33L33 32ZM0 0L0 7L7 7L7 0ZM1 1L1 6L6 6L6 1ZM2 2L2 5L5 5L5 2ZM26 0L26 7L33 7L33 0ZM27 1L27 6L32 6L32 1ZM28 2L28 5L31 5L31 2ZM0 26L0 33L7 33L7 26ZM1 27L1 32L6 32L6 27ZM2 28L2 31L5 31L5 28Z" fill="#000000"/></g></g></svg>
