<?xml version="1.0" encoding="UTF-8"?>
<svg xmlns="http://www.w3.org/2000/svg" version="1.1" width="100" height="100" viewBox="0 0 100 100"><rect x="0" y="0" width="100" height="100" fill="#ffffff"/><g transform="scale(3.03)"><g transform="translate(0,0)"><path fill-rule="evenodd" d="M8 0L8 4L9 4L9 5L8 5L8 7L9 7L9 6L10 6L10 9L11 9L11 10L9 10L9 12L8 12L8 14L2 14L2 15L0 15L0 17L1 17L1 16L2 16L2 17L3 17L3 16L4 16L4 20L3 20L3 18L1 18L1 20L0 20L0 22L1 22L1 20L3 20L3 21L2 21L2 23L4 23L4 24L3 24L3 25L4 25L4 24L5 24L5 25L7 25L7 24L8 24L8 26L9 26L9 22L6 22L6 21L7 21L7 20L6 20L6 19L10 19L10 22L11 22L11 23L10 23L10 24L11 24L11 23L13 23L13 22L14 22L14 25L13 25L13 26L12 26L12 25L11 25L11 26L10 26L10 27L8 27L8 29L9 29L9 28L10 28L10 30L9 30L9 31L8 31L8 33L11 33L11 31L12 31L12 29L11 29L11 28L13 28L13 27L14 27L14 26L15 26L15 28L14 28L14 29L15 29L15 32L14 32L14 33L16 33L16 32L18 32L18 30L19 30L19 29L20 29L20 30L21 30L21 29L22 29L22 28L24 28L24 29L23 29L23 30L22 30L22 31L20 31L20 33L22 33L22 32L23 32L23 31L24 31L24 33L25 33L25 32L26 32L26 31L27 31L27 32L28 32L28 31L29 31L29 32L30 32L30 31L32 31L32 30L33 30L33 29L32 29L32 28L33 28L33 27L32 27L32 26L31 26L31 25L32 25L32 24L33 24L33 23L31 23L31 22L32 22L32 21L33 21L33 19L32 19L32 17L29 17L29 15L32 15L32 16L33 16L33 15L32 15L32 14L31 14L31 13L30 13L30 14L27 14L27 15L26 15L26 16L24 16L24 17L23 17L23 18L22 18L22 19L21 19L21 18L20 18L20 19L21 19L21 20L19 20L19 21L18 21L18 18L19 18L19 17L18 17L18 16L19 16L19 15L17 15L17 13L18 13L18 14L19 14L19 13L23 13L23 15L24 15L24 13L23 13L23 12L22 12L22 11L25 11L25 10L24 10L24 9L25 9L25 6L24 6L24 7L23 7L23 6L22 6L22 7L21 7L21 5L22 5L22 4L21 4L21 3L23 3L23 5L24 5L24 4L25 4L25 3L23 3L23 1L24 1L24 2L25 2L25 1L24 1L24 0L22 0L22 1L21 1L21 0L20 0L20 1L19 1L19 0L18 0L18 1L17 1L17 2L16 2L16 3L15 3L15 4L14 4L14 3L13 3L13 2L14 2L14 1L16 1L16 0L14 0L14 1L11 1L11 2L12 2L12 3L13 3L13 4L12 4L12 5L14 5L14 7L15 7L15 5L16 5L16 4L20 4L20 5L17 5L17 6L16 6L16 7L17 7L17 9L16 9L16 8L15 8L15 10L14 10L14 9L13 9L13 10L14 10L14 11L15 11L15 12L17 12L17 13L15 13L15 15L14 15L14 16L15 16L15 21L13 21L13 18L14 18L14 17L13 17L13 18L12 18L12 17L11 17L11 16L10 16L10 14L11 14L11 15L12 15L12 14L13 14L13 12L12 12L12 13L9 13L9 12L10 12L10 11L12 11L12 8L13 8L13 6L12 6L12 7L11 7L11 3L10 3L10 2L9 2L9 0ZM18 2L18 3L19 3L19 2ZM20 2L20 3L21 3L21 2ZM17 6L17 7L18 7L18 6ZM19 6L19 7L20 7L20 8L21 8L21 7L20 7L20 6ZM22 7L22 8L23 8L23 9L21 9L21 11L22 11L22 10L23 10L23 9L24 9L24 8L23 8L23 7ZM0 8L0 12L1 12L1 13L3 13L3 12L1 12L1 10L2 10L2 11L3 11L3 10L4 10L4 9L5 9L5 10L6 10L6 11L4 11L4 13L7 13L7 12L6 12L6 11L7 11L7 10L8 10L8 9L7 9L7 8L4 8L4 9L3 9L3 10L2 10L2 8ZM18 8L18 9L17 9L17 10L16 10L16 11L17 11L17 10L18 10L18 11L19 11L19 12L18 12L18 13L19 13L19 12L20 12L20 9L19 9L19 8ZM27 8L27 9L28 9L28 8ZM29 8L29 10L26 10L26 11L27 11L27 12L25 12L25 13L29 13L29 12L28 12L28 11L29 11L29 10L30 10L30 9L31 9L31 12L32 12L32 13L33 13L33 12L32 12L32 9L33 9L33 8ZM6 9L6 10L7 10L7 9ZM18 9L18 10L19 10L19 9ZM8 14L8 15L9 15L9 14ZM20 14L20 17L22 17L22 14ZM4 15L4 16L5 16L5 19L6 19L6 18L8 18L8 17L10 17L10 19L11 19L11 17L10 17L10 16L7 16L7 15L6 15L6 16L5 16L5 15ZM15 15L15 16L16 16L16 17L17 17L17 16L16 16L16 15ZM27 15L27 16L28 16L28 15ZM6 16L6 17L7 17L7 16ZM25 17L25 18L24 18L24 19L26 19L26 20L27 20L27 18L29 18L29 19L28 19L28 20L30 20L30 21L25 21L25 22L24 22L24 23L23 23L23 24L22 24L22 25L20 25L20 24L18 24L18 25L19 25L19 27L18 27L18 26L16 26L16 27L18 27L18 28L19 28L19 27L20 27L20 28L21 28L21 27L22 27L22 26L23 26L23 27L24 27L24 24L26 24L26 23L28 23L28 24L29 24L29 26L30 26L30 25L31 25L31 23L30 23L30 24L29 24L29 23L28 23L28 22L30 22L30 21L31 21L31 20L32 20L32 19L31 19L31 18L29 18L29 17ZM16 18L16 19L17 19L17 18ZM4 20L4 21L3 21L3 22L4 22L4 23L5 23L5 24L7 24L7 23L6 23L6 22L5 22L5 21L6 21L6 20ZM11 20L11 21L12 21L12 22L13 22L13 21L12 21L12 20ZM16 20L16 21L17 21L17 20ZM22 20L22 21L23 21L23 20ZM19 21L19 22L18 22L18 23L22 23L22 22L21 22L21 21ZM15 23L15 25L16 25L16 23ZM0 24L0 25L2 25L2 24ZM25 25L25 28L28 28L28 25ZM26 26L26 27L27 27L27 26ZM10 27L10 28L11 28L11 27ZM30 27L30 29L29 29L29 30L31 30L31 28L32 28L32 27ZM15 28L15 29L17 29L17 30L18 30L18 29L17 29L17 28ZM10 30L10 31L11 31L11 30ZM13 30L13 31L14 31L14 30ZM24 30L24 31L25 31L25 30ZM12 32L12 33L13 33L13 32ZM32 32L32 33L33 33L33 32ZM0 0L0 7L7 7L7 0ZM1 1L1 6L6 6L6 1ZM2 2L2 5L5 5L5 2ZM26 0L26 7L33 7L33 0ZM27 1L27 6L32 6L32 1ZM28 2L28 5L31 5L31 2ZM0 26L0 33L7 33L7 26ZM1 27L1 32L6 32L6 27ZM2 28L2 31L5 31L5 28Z" fill="#000000"/></g></g></svg>
