<?xml version="1.0" encoding="UTF-8"?>
<svg xmlns="http://www.w3.org/2000/svg" version="1.1" width="100" height="100" viewBox="0 0 100 100"><rect x="0" y="0" width="100" height="100" fill="#ffffff"/><g transform="scale(2.703)"><g transform="translate(0,0)"><path fill-rule="evenodd" d="M8 0L8 4L10 4L10 3L11 3L11 4L12 4L12 2L11 2L11 0ZM12 0L12 1L13 1L13 0ZM18 0L18 1L16 1L16 2L15 2L15 3L14 3L14 2L13 2L13 3L14 3L14 4L13 4L13 5L11 5L11 6L10 6L10 7L9 7L9 5L8 5L8 7L9 7L9 8L10 8L10 7L11 7L11 6L12 6L12 8L11 8L11 9L10 9L10 10L9 10L9 9L7 9L7 8L4 8L4 9L3 9L3 10L1 10L1 9L2 9L2 8L0 8L0 10L1 10L1 11L0 11L0 12L2 12L2 18L3 18L3 19L2 19L2 20L3 20L3 21L1 21L1 20L0 20L0 21L1 21L1 22L2 22L2 24L0 24L0 26L1 26L1 25L2 25L2 26L3 26L3 25L4 25L4 24L5 24L5 25L7 25L7 26L6 26L6 27L7 27L7 26L8 26L8 27L9 27L9 26L8 26L8 24L5 24L5 23L8 23L8 22L9 22L9 21L7 21L7 20L6 20L6 19L7 19L7 18L8 18L8 17L12 17L12 18L11 18L11 19L10 19L10 21L11 21L11 20L12 20L12 21L13 21L13 22L15 22L15 23L14 23L14 24L13 24L13 23L12 23L12 24L11 24L11 25L10 25L10 24L9 24L9 25L10 25L10 28L8 28L8 30L9 30L9 31L8 31L8 33L9 33L9 34L10 34L10 35L8 35L8 37L10 37L10 35L11 35L11 36L12 36L12 37L14 37L14 35L16 35L16 37L18 37L18 36L19 36L19 37L21 37L21 36L22 36L22 37L23 37L23 35L24 35L24 34L26 34L26 37L28 37L28 36L27 36L27 35L29 35L29 36L30 36L30 35L31 35L31 33L34 33L34 35L33 35L33 37L37 37L37 36L36 36L36 35L35 35L35 34L37 34L37 31L34 31L34 30L33 30L33 28L34 28L34 29L35 29L35 30L36 30L36 29L35 29L35 27L36 27L36 28L37 28L37 27L36 27L36 26L35 26L35 24L36 24L36 25L37 25L37 23L34 23L34 22L33 22L33 21L31 21L31 20L30 20L30 21L31 21L31 23L30 23L30 22L29 22L29 20L28 20L28 21L26 21L26 22L24 22L24 21L25 21L25 20L24 20L24 17L25 17L25 19L26 19L26 18L27 18L27 19L32 19L32 18L33 18L33 20L34 20L34 21L36 21L36 20L37 20L37 19L34 19L34 18L33 18L33 17L35 17L35 18L36 18L36 17L37 17L37 16L35 16L35 14L34 14L34 13L36 13L36 12L35 12L35 11L34 11L34 10L33 10L33 9L37 9L37 8L33 8L33 9L32 9L32 8L31 8L31 11L30 11L30 9L27 9L27 8L28 8L28 7L29 7L29 5L28 5L28 4L29 4L29 2L28 2L28 3L27 3L27 4L26 4L26 3L22 3L22 2L21 2L21 0L20 0L20 1L19 1L19 0ZM23 0L23 1L24 1L24 2L25 2L25 1L24 1L24 0ZM27 0L27 1L26 1L26 2L27 2L27 1L28 1L28 0ZM9 2L9 3L10 3L10 2ZM18 2L18 3L17 3L17 5L16 5L16 4L15 4L15 5L16 5L16 6L15 6L15 8L17 8L17 7L18 7L18 11L19 11L19 12L18 12L18 13L17 13L17 12L15 12L15 11L14 11L14 13L15 13L15 14L13 14L13 13L12 13L12 12L13 12L13 11L12 11L12 12L11 12L11 13L10 13L10 11L11 11L11 10L12 10L12 9L13 9L13 10L16 10L16 11L17 11L17 9L13 9L13 8L14 8L14 6L13 6L13 8L12 8L12 9L11 9L11 10L10 10L10 11L9 11L9 10L7 10L7 9L4 9L4 10L3 10L3 17L5 17L5 15L6 15L6 16L8 16L8 15L6 15L6 14L9 14L9 15L10 15L10 16L12 16L12 17L13 17L13 18L16 18L16 20L17 20L17 18L18 18L18 17L19 17L19 20L20 20L20 21L19 21L19 22L18 22L18 21L17 21L17 23L18 23L18 24L19 24L19 23L20 23L20 25L18 25L18 26L17 26L17 24L16 24L16 23L15 23L15 25L13 25L13 24L12 24L12 25L11 25L11 26L12 26L12 25L13 25L13 26L15 26L15 25L16 25L16 26L17 26L17 27L18 27L18 28L20 28L20 29L19 29L19 30L18 30L18 29L17 29L17 30L16 30L16 32L15 32L15 33L13 33L13 32L14 32L14 31L15 31L15 30L13 30L13 29L12 29L12 28L13 28L13 27L12 27L12 28L10 28L10 29L9 29L9 30L11 30L11 31L9 31L9 33L10 33L10 34L12 34L12 33L13 33L13 34L15 34L15 33L17 33L17 34L16 34L16 35L17 35L17 34L19 34L19 35L20 35L20 36L21 36L21 34L23 34L23 32L24 32L24 33L28 33L28 28L29 28L29 27L30 27L30 28L31 28L31 27L30 27L30 26L31 26L31 25L33 25L33 26L32 26L32 28L33 28L33 26L34 26L34 27L35 27L35 26L34 26L34 25L33 25L33 22L32 22L32 23L31 23L31 25L30 25L30 24L29 24L29 26L28 26L28 28L26 28L26 27L27 27L27 26L25 26L25 25L28 25L28 23L22 23L22 24L23 24L23 26L24 26L24 27L22 27L22 25L21 25L21 22L23 22L23 21L21 21L21 20L20 20L20 19L21 19L21 17L19 17L19 16L20 16L20 14L21 14L21 13L20 13L20 11L22 11L22 10L23 10L23 9L24 9L24 11L23 11L23 12L24 12L24 11L25 11L25 13L24 13L24 14L25 14L25 15L24 15L24 16L23 16L23 15L22 15L22 16L23 16L23 17L22 17L22 19L23 19L23 17L24 17L24 16L25 16L25 17L26 17L26 16L27 16L27 15L26 15L26 12L27 12L27 13L30 13L30 14L31 14L31 13L34 13L34 11L32 11L32 12L31 12L31 13L30 13L30 11L29 11L29 10L28 10L28 11L27 11L27 10L26 10L26 11L25 11L25 9L26 9L26 8L27 8L27 7L28 7L28 5L27 5L27 7L26 7L26 5L25 5L25 4L24 4L24 5L23 5L23 4L22 4L22 3L20 3L20 2ZM18 3L18 4L20 4L20 5L19 5L19 6L18 6L18 7L19 7L19 9L20 9L20 10L21 10L21 8L22 8L22 9L23 9L23 8L24 8L24 9L25 9L25 5L24 5L24 7L23 7L23 6L22 6L22 7L21 7L21 4L20 4L20 3ZM16 6L16 7L17 7L17 6ZM19 6L19 7L20 7L20 8L21 8L21 7L20 7L20 6ZM4 10L4 13L5 13L5 10ZM6 10L6 11L7 11L7 12L6 12L6 13L7 13L7 12L8 12L8 13L9 13L9 14L10 14L10 13L9 13L9 12L8 12L8 11L7 11L7 10ZM28 11L28 12L29 12L29 11ZM16 13L16 15L17 15L17 17L18 17L18 14L17 14L17 13ZM22 13L22 14L23 14L23 13ZM0 14L0 16L1 16L1 14ZM4 14L4 15L5 15L5 14ZM28 14L28 15L29 15L29 16L28 16L28 17L30 17L30 18L31 18L31 17L33 17L33 16L34 16L34 14L32 14L32 15L29 15L29 14ZM12 15L12 16L13 16L13 17L16 17L16 16L15 16L15 15L14 15L14 16L13 16L13 15ZM30 16L30 17L31 17L31 16ZM0 17L0 19L1 19L1 17ZM6 17L6 18L4 18L4 19L3 19L3 20L4 20L4 22L5 22L5 20L4 20L4 19L6 19L6 18L7 18L7 17ZM12 19L12 20L13 20L13 19ZM14 19L14 21L15 21L15 19ZM6 21L6 22L7 22L7 21ZM3 23L3 24L4 24L4 23ZM24 24L24 25L25 25L25 24ZM20 26L20 28L21 28L21 32L20 32L20 33L22 33L22 32L23 32L23 31L24 31L24 30L25 30L25 28L24 28L24 29L23 29L23 28L22 28L22 27L21 27L21 26ZM2 27L2 28L0 28L0 29L2 29L2 28L4 28L4 27ZM14 27L14 29L16 29L16 27ZM6 28L6 29L7 29L7 28ZM22 29L22 30L23 30L23 29ZM26 29L26 32L27 32L27 29ZM29 29L29 32L32 32L32 29ZM30 30L30 31L31 31L31 30ZM12 31L12 32L10 32L10 33L12 33L12 32L13 32L13 31ZM17 31L17 33L18 33L18 31ZM35 32L35 33L36 33L36 32ZM29 33L29 34L30 34L30 33ZM12 35L12 36L13 36L13 35ZM24 36L24 37L25 37L25 36ZM31 36L31 37L32 37L32 36ZM0 0L0 7L7 7L7 0ZM1 1L1 6L6 6L6 1ZM2 2L2 5L5 5L5 2ZM30 0L30 7L37 7L37 0ZM31 1L31 6L36 6L36 1ZM32 2L32 5L35 5L35 2ZM0 30L0 37L7 37L7 30ZM1 31L1 36L6 36L6 31ZM2 32L2 35L5 35L5 32Z" fill="#000000"/></g></g></svg>
