<?xml version="1.0" encoding="UTF-8"?>
<svg xmlns="http://www.w3.org/2000/svg" version="1.1" width="100" height="100" viewBox="0 0 100 100"><rect x="0" y="0" width="100" height="100" fill="#ffffff"/><g transform="scale(3.03)"><g transform="translate(0,0)"><path fill-rule="evenodd" d="M8 0L8 1L10 1L10 0ZM14 0L14 1L15 1L15 0ZM16 0L16 1L17 1L17 0ZM18 0L18 1L20 1L20 2L22 2L22 4L21 4L21 3L19 3L19 6L18 6L18 7L17 7L17 5L18 5L18 4L17 4L17 5L16 5L16 3L17 3L17 2L15 2L15 3L14 3L14 2L11 2L11 4L10 4L10 3L9 3L9 2L8 2L8 5L9 5L9 6L8 6L8 7L9 7L9 8L8 8L8 10L6 10L6 11L5 11L5 10L4 10L4 11L3 11L3 10L2 10L2 9L4 9L4 8L0 8L0 10L2 10L2 11L0 11L0 13L1 13L1 14L0 14L0 20L1 20L1 19L2 19L2 20L4 20L4 21L2 21L2 22L3 22L3 23L1 23L1 24L0 24L0 25L1 25L1 24L3 24L3 23L4 23L4 24L5 24L5 25L8 25L8 26L10 26L10 27L9 27L9 28L10 28L10 31L9 31L9 29L8 29L8 33L9 33L9 32L10 32L10 33L11 33L11 30L14 30L14 31L16 31L16 28L15 28L15 29L14 29L14 28L13 28L13 29L12 29L12 28L11 28L11 25L10 25L10 24L12 24L12 22L13 22L13 25L12 25L12 27L13 27L13 25L14 25L14 26L17 26L17 27L18 27L18 26L19 26L19 28L18 28L18 29L19 29L19 28L20 28L20 29L22 29L22 30L23 30L23 31L24 31L24 32L27 32L27 31L28 31L28 33L29 33L29 32L30 32L30 33L31 33L31 32L30 32L30 31L28 31L28 29L29 29L29 26L30 26L30 30L31 30L31 31L32 31L32 32L33 32L33 31L32 31L32 29L31 29L31 26L32 26L32 25L33 25L33 21L32 21L32 20L29 20L29 19L32 19L32 18L33 18L33 17L32 17L32 16L33 16L33 15L32 15L32 16L31 16L31 14L32 14L32 12L31 12L31 14L30 14L30 13L29 13L29 12L30 12L30 11L28 11L28 9L29 9L29 10L30 10L30 9L31 9L31 8L28 8L28 9L26 9L26 8L25 8L25 4L24 4L24 7L23 7L23 5L22 5L22 4L23 4L23 3L24 3L24 0L21 0L21 1L20 1L20 0ZM12 3L12 5L10 5L10 6L9 6L9 7L10 7L10 8L9 8L9 9L10 9L10 10L9 10L9 12L8 12L8 14L7 14L7 13L6 13L6 12L7 12L7 11L6 11L6 12L5 12L5 11L4 11L4 12L3 12L3 11L2 11L2 14L1 14L1 18L2 18L2 17L3 17L3 19L4 19L4 20L5 20L5 21L4 21L4 23L6 23L6 24L7 24L7 23L8 23L8 25L9 25L9 23L11 23L11 21L15 21L15 23L14 23L14 25L19 25L19 24L20 24L20 28L21 28L21 26L23 26L23 25L24 25L24 24L25 24L25 23L26 23L26 24L29 24L29 25L30 25L30 26L31 26L31 25L32 25L32 21L31 21L31 23L29 23L29 22L30 22L30 21L29 21L29 20L28 20L28 19L29 19L29 18L28 18L28 17L27 17L27 18L26 18L26 16L29 16L29 15L30 15L30 14L29 14L29 13L28 13L28 11L27 11L27 12L25 12L25 11L24 11L24 12L23 12L23 9L24 9L24 10L25 10L25 8L22 8L22 5L20 5L20 6L19 6L19 7L20 7L20 6L21 6L21 8L20 8L20 10L19 10L19 11L21 11L21 12L18 12L18 11L17 11L17 9L15 9L15 11L14 11L14 8L16 8L16 5L15 5L15 4L14 4L14 6L13 6L13 7L12 7L12 5L13 5L13 3ZM10 6L10 7L11 7L11 8L12 8L12 7L11 7L11 6ZM14 6L14 7L15 7L15 6ZM6 8L6 9L7 9L7 8ZM21 8L21 11L22 11L22 8ZM32 8L32 10L31 10L31 11L33 11L33 8ZM11 11L11 13L10 13L10 12L9 12L9 13L10 13L10 14L8 14L8 15L10 15L10 14L12 14L12 15L14 15L14 16L12 16L12 17L10 17L10 16L9 16L9 17L8 17L8 18L9 18L9 19L8 19L8 20L9 20L9 21L10 21L10 19L11 19L11 18L12 18L12 19L14 19L14 20L15 20L15 19L16 19L16 20L17 20L17 21L16 21L16 23L15 23L15 24L16 24L16 23L18 23L18 22L20 22L20 24L21 24L21 23L22 23L22 24L24 24L24 22L26 22L26 23L28 23L28 20L27 20L27 19L28 19L28 18L27 18L27 19L25 19L25 18L24 18L24 16L25 16L25 15L26 15L26 13L24 13L24 14L25 14L25 15L21 15L21 14L20 14L20 13L19 13L19 15L20 15L20 16L18 16L18 18L19 18L19 17L20 17L20 20L19 20L19 21L18 21L18 19L16 19L16 17L15 17L15 16L16 16L16 15L15 15L15 14L16 14L16 12L17 12L17 13L18 13L18 12L17 12L17 11L15 11L15 12L14 12L14 11ZM22 12L22 13L23 13L23 12ZM3 13L3 14L2 14L2 15L4 15L4 16L5 16L5 20L6 20L6 21L7 21L7 20L6 20L6 19L7 19L7 18L6 18L6 17L7 17L7 16L6 16L6 15L7 15L7 14L6 14L6 13ZM12 13L12 14L14 14L14 13ZM4 14L4 15L6 15L6 14ZM22 16L22 17L21 17L21 20L20 20L20 21L21 21L21 22L22 22L22 23L23 23L23 22L22 22L22 21L21 21L21 20L23 20L23 19L24 19L24 18L22 18L22 17L23 17L23 16ZM9 17L9 18L10 18L10 17ZM14 17L14 19L15 19L15 17ZM30 17L30 18L31 18L31 17ZM24 20L24 21L25 21L25 20ZM26 20L26 21L27 21L27 20ZM0 21L0 22L1 22L1 21ZM17 21L17 22L18 22L18 21ZM6 22L6 23L7 23L7 22ZM25 25L25 28L28 28L28 25ZM26 26L26 27L27 27L27 26ZM22 27L22 29L23 29L23 28L24 28L24 27ZM26 29L26 30L27 30L27 29ZM18 30L18 31L17 31L17 33L19 33L19 30ZM12 32L12 33L13 33L13 32ZM14 32L14 33L15 33L15 32ZM21 32L21 33L23 33L23 32ZM0 0L0 7L7 7L7 0ZM1 1L1 6L6 6L6 1ZM2 2L2 5L5 5L5 2ZM26 0L26 7L33 7L33 0ZM27 1L27 6L32 6L32 1ZM28 2L28 5L31 5L31 2ZM0 26L0 33L7 33L7 26ZM1 27L1 32L6 32L6 27ZM2 28L2 31L5 31L5 28Z" fill="#000000"/></g></g></svg>
