<?xml version="1.0" encoding="UTF-8"?>
<svg xmlns="http://www.w3.org/2000/svg" version="1.1" width="100" height="100" viewBox="0 0 100 100"><rect x="0" y="0" width="100" height="100" fill="#ffffff"/><g transform="scale(3.03)"><g transform="translate(0,0)"><path fill-rule="evenodd" d="M9 0L9 1L8 1L8 3L9 3L9 4L8 4L8 8L6 8L6 9L7 9L7 10L5 10L5 9L4 9L4 8L3 8L3 9L4 9L4 11L8 11L8 8L10 8L10 10L9 10L9 11L11 11L11 10L12 10L12 9L11 9L11 8L10 8L10 7L11 7L11 6L12 6L12 8L13 8L13 12L12 12L12 13L9 13L9 12L8 12L8 14L6 14L6 15L7 15L7 16L5 16L5 13L7 13L7 12L5 12L5 13L4 13L4 12L1 12L1 11L0 11L0 14L2 14L2 13L4 13L4 16L3 16L3 17L2 17L2 18L1 18L1 16L2 16L2 15L1 15L1 16L0 16L0 18L1 18L1 19L0 19L0 20L1 20L1 22L0 22L0 23L1 23L1 24L0 24L0 25L1 25L1 24L2 24L2 25L4 25L4 24L5 24L5 23L7 23L7 24L6 24L6 25L8 25L8 27L9 27L9 26L11 26L11 27L13 27L13 28L16 28L16 27L15 27L15 25L14 25L14 24L17 24L17 25L18 25L18 24L19 24L19 26L18 26L18 27L17 27L17 29L16 29L16 30L17 30L17 29L20 29L20 32L19 32L19 33L20 33L20 32L21 32L21 33L26 33L26 32L28 32L28 33L30 33L30 31L29 31L29 29L30 29L30 30L31 30L31 31L33 31L33 27L32 27L32 26L33 26L33 25L31 25L31 27L32 27L32 29L30 29L30 25L29 25L29 23L28 23L28 19L32 19L32 20L33 20L33 18L32 18L32 17L31 17L31 18L30 18L30 17L29 17L29 16L27 16L27 15L26 15L26 14L29 14L29 15L30 15L30 13L28 13L28 11L29 11L29 12L30 12L30 11L31 11L31 10L32 10L32 12L31 12L31 16L33 16L33 15L32 15L32 14L33 14L33 9L32 9L32 8L30 8L30 10L28 10L28 9L29 9L29 8L26 8L26 11L25 11L25 12L26 12L26 13L24 13L24 14L23 14L23 13L22 13L22 12L24 12L24 11L22 11L22 7L23 7L23 9L24 9L24 10L25 10L25 5L24 5L24 4L25 4L25 2L24 2L24 0L23 0L23 2L22 2L22 4L21 4L21 3L20 3L20 2L17 2L17 1L16 1L16 0L15 0L15 2L14 2L14 4L13 4L13 6L12 6L12 5L11 5L11 6L10 6L10 5L9 5L9 4L12 4L12 3L13 3L13 1L14 1L14 0L12 0L12 1L11 1L11 2L9 2L9 1L10 1L10 0ZM18 0L18 1L21 1L21 0ZM15 2L15 3L17 3L17 2ZM23 2L23 3L24 3L24 2ZM19 3L19 5L20 5L20 3ZM14 4L14 5L15 5L15 4ZM17 4L17 5L16 5L16 6L15 6L15 7L14 7L14 6L13 6L13 8L15 8L15 9L14 9L14 12L15 12L15 11L17 11L17 12L18 12L18 15L20 15L20 14L19 14L19 13L20 13L20 12L21 12L21 7L22 7L22 6L23 6L23 7L24 7L24 5L23 5L23 4L22 4L22 6L21 6L21 7L20 7L20 6L19 6L19 7L18 7L18 4ZM9 6L9 7L10 7L10 6ZM16 6L16 9L17 9L17 10L18 10L18 9L17 9L17 8L18 8L18 7L17 7L17 6ZM19 7L19 8L20 8L20 7ZM0 8L0 9L1 9L1 10L2 10L2 11L3 11L3 10L2 10L2 8ZM19 10L19 11L18 11L18 12L20 12L20 10ZM27 10L27 11L28 11L28 10ZM13 13L13 14L14 14L14 16L13 16L13 17L11 17L11 18L10 18L10 17L9 17L9 16L7 16L7 17L6 17L6 18L7 18L7 19L6 19L6 20L7 20L7 21L5 21L5 20L4 20L4 22L3 22L3 21L2 21L2 23L3 23L3 24L4 24L4 22L7 22L7 23L8 23L8 24L9 24L9 25L10 25L10 22L11 22L11 23L12 23L12 24L11 24L11 26L13 26L13 27L14 27L14 25L12 25L12 24L13 24L13 23L14 23L14 22L15 22L15 23L16 23L16 20L17 20L17 21L18 21L18 22L17 22L17 24L18 24L18 22L20 22L20 21L21 21L21 22L22 22L22 24L23 24L23 25L24 25L24 24L25 24L25 23L26 23L26 24L27 24L27 23L26 23L26 21L27 21L27 19L28 19L28 18L29 18L29 17L28 17L28 18L27 18L27 17L24 17L24 16L26 16L26 15L23 15L23 14L21 14L21 15L23 15L23 16L22 16L22 18L23 18L23 19L24 19L24 18L27 18L27 19L26 19L26 20L25 20L25 21L24 21L24 20L23 20L23 22L22 22L22 21L21 21L21 17L20 17L20 16L18 16L18 17L17 17L17 15L16 15L16 13ZM8 14L8 15L9 15L9 14ZM11 14L11 15L10 15L10 16L12 16L12 14ZM4 16L4 17L5 17L5 16ZM14 16L14 17L15 17L15 16ZM7 17L7 18L8 18L8 17ZM18 17L18 19L17 19L17 18L16 18L16 19L15 19L15 18L13 18L13 19L11 19L11 20L13 20L13 21L12 21L12 23L13 23L13 22L14 22L14 20L13 20L13 19L15 19L15 20L16 20L16 19L17 19L17 20L18 20L18 19L19 19L19 17ZM23 17L23 18L24 18L24 17ZM3 18L3 19L4 19L4 18ZM1 19L1 20L2 20L2 19ZM7 19L7 20L8 20L8 22L10 22L10 19ZM29 21L29 22L30 22L30 21ZM31 21L31 23L33 23L33 21ZM24 22L24 23L23 23L23 24L24 24L24 23L25 23L25 22ZM19 23L19 24L21 24L21 23ZM25 25L25 28L28 28L28 25ZM19 26L19 28L21 28L21 26ZM23 26L23 27L22 27L22 30L23 30L23 32L24 32L24 28L23 28L23 27L24 27L24 26ZM26 26L26 27L27 27L27 26ZM8 29L8 30L9 30L9 31L8 31L8 33L9 33L9 31L10 31L10 33L15 33L15 30L14 30L14 29L11 29L11 30L10 30L10 29ZM27 29L27 30L26 30L26 31L25 31L25 32L26 32L26 31L28 31L28 32L29 32L29 31L28 31L28 29ZM11 30L11 31L13 31L13 32L14 32L14 31L13 31L13 30ZM18 30L18 31L16 31L16 32L17 32L17 33L18 33L18 31L19 31L19 30ZM31 32L31 33L32 33L32 32ZM0 0L0 7L7 7L7 0ZM1 1L1 6L6 6L6 1ZM2 2L2 5L5 5L5 2ZM26 0L26 7L33 7L33 0ZM27 1L27 6L32 6L32 1ZM28 2L28 5L31 5L31 2ZM0 26L0 33L7 33L7 26ZM1 27L1 32L6 32L6 27ZM2 28L2 31L5 31L5 28Z" fill="#000000"/></g></g></svg>
